solid OpenSCAD_Model
  facet normal -1 0 0
    outer loop
      vertex -20 -30.5 -5
      vertex -20 -30.5 5
      vertex -20 -27.5 -5
    endloop
  endfacet
  facet normal -1 0 0
    outer loop
      vertex -20 -27.5 -5
      vertex -20 -30.5 5
      vertex -20 -27.5 5
    endloop
  endfacet
  facet normal 0 -1 0
    outer loop
      vertex 0.463525 -30.5 -1.42658
      vertex -20 -30.5 -5
      vertex 20 -30.5 -5
    endloop
  endfacet
  facet normal 0 -1 0
    outer loop
      vertex 0 -30.5 -1.5
      vertex -0.463525 -30.5 -1.42658
      vertex -20 -30.5 -5
    endloop
  endfacet
  facet normal 0 -1 0
    outer loop
      vertex -20 -30.5 5
      vertex -20 -30.5 -5
      vertex -1.42658 -30.5 -0.463525
    endloop
  endfacet
  facet normal 0 -1 0
    outer loop
      vertex 1.21352 -30.5 -0.881678
      vertex 0.881678 -30.5 -1.21352
      vertex 20 -30.5 -5
    endloop
  endfacet
  facet normal 0 -1 0
    outer loop
      vertex -20 -30.5 5
      vertex -1.42658 -30.5 -0.463525
      vertex -1.5 -30.5 1.11022e-16
    endloop
  endfacet
  facet normal 0 -1 0
    outer loop
      vertex 1.42658 -30.5 -0.463525
      vertex 1.21352 -30.5 -0.881678
      vertex 20 -30.5 -5
    endloop
  endfacet
  facet normal 0 -1 0
    outer loop
      vertex -1.21352 -30.5 0.881678
      vertex -20 -30.5 5
      vertex -1.42658 -30.5 0.463525
    endloop
  endfacet
  facet normal 0 -1 0
    outer loop
      vertex -0.881678 -30.5 1.21352
      vertex -20 -30.5 5
      vertex -1.21352 -30.5 0.881678
    endloop
  endfacet
  facet normal 0 -1 0
    outer loop
      vertex -0.463525 -30.5 1.42658
      vertex -20 -30.5 5
      vertex -0.881678 -30.5 1.21352
    endloop
  endfacet
  facet normal 0 -1 0
    outer loop
      vertex 20 -30.5 5
      vertex -20 -30.5 5
      vertex -0.463525 -30.5 1.42658
    endloop
  endfacet
  facet normal 0 -1 0
    outer loop
      vertex 0.463525 -30.5 1.42658
      vertex 0.881678 -30.5 1.21352
      vertex 20 -30.5 5
    endloop
  endfacet
  facet normal 0 -1 0
    outer loop
      vertex 20 -30.5 5
      vertex -0.463525 -30.5 1.42658
      vertex 0 -30.5 1.5
    endloop
  endfacet
  facet normal 0 -1 0
    outer loop
      vertex 0.881678 -30.5 1.21352
      vertex 1.21352 -30.5 0.881678
      vertex 20 -30.5 5
    endloop
  endfacet
  facet normal 0 -1 0
    outer loop
      vertex 1.5 -30.5 1.11022e-16
      vertex 1.42658 -30.5 -0.463525
      vertex 20 -30.5 -5
    endloop
  endfacet
  facet normal 0 -1 0
    outer loop
      vertex 20 -30.5 5
      vertex 1.21352 -30.5 0.881678
      vertex 20 -30.5 -5
    endloop
  endfacet
  facet normal 0 -1 0
    outer loop
      vertex 1.21352 -30.5 0.881678
      vertex 1.42658 -30.5 0.463525
      vertex 20 -30.5 -5
    endloop
  endfacet
  facet normal 0 -1 0
    outer loop
      vertex 1.42658 -30.5 0.463525
      vertex 1.5 -30.5 1.11022e-16
      vertex 20 -30.5 -5
    endloop
  endfacet
  facet normal 0 -1 0
    outer loop
      vertex 0 -30.5 1.5
      vertex 0.463525 -30.5 1.42658
      vertex 20 -30.5 5
    endloop
  endfacet
  facet normal 0 -1 0
    outer loop
      vertex 0.881678 -30.5 -1.21352
      vertex 0.463525 -30.5 -1.42658
      vertex 20 -30.5 -5
    endloop
  endfacet
  facet normal 0 -1 0
    outer loop
      vertex 0 -30.5 -1.5
      vertex -20 -30.5 -5
      vertex 0.463525 -30.5 -1.42658
    endloop
  endfacet
  facet normal 0 -1 0
    outer loop
      vertex -0.881678 -30.5 -1.21352
      vertex -20 -30.5 -5
      vertex -0.463525 -30.5 -1.42658
    endloop
  endfacet
  facet normal 0 -1 0
    outer loop
      vertex -1.21352 -30.5 -0.881678
      vertex -20 -30.5 -5
      vertex -0.881678 -30.5 -1.21352
    endloop
  endfacet
  facet normal 0 -1 0
    outer loop
      vertex -1.42658 -30.5 -0.463525
      vertex -20 -30.5 -5
      vertex -1.21352 -30.5 -0.881678
    endloop
  endfacet
  facet normal 0 -1 0
    outer loop
      vertex -1.5 -30.5 1.11022e-16
      vertex -1.42658 -30.5 0.463525
      vertex -20 -30.5 5
    endloop
  endfacet
  facet normal 0 0 -1
    outer loop
      vertex -20 -30.5 -5
      vertex -20 -27.5 -5
      vertex 20 -30.5 -5
    endloop
  endfacet
  facet normal 0 0 -1
    outer loop
      vertex 20 -30.5 -5
      vertex -20 -27.5 -5
      vertex -19.8819 -27.5 -5
    endloop
  endfacet
  facet normal 0 0 -1
    outer loop
      vertex -16.7907 -26.3406 -5
      vertex -19.8819 -27.5 -5
      vertex -19.7538 -25.8713 -5
    endloop
  endfacet
  facet normal 0 0 -1
    outer loop
      vertex -16.168 -23.7467 -5
      vertex -19.7538 -25.8713 -5
      vertex -19.0211 -22.8197 -5
    endloop
  endfacet
  facet normal 0 0 -1
    outer loop
      vertex -15.1471 -21.2822 -5
      vertex -19.0211 -22.8197 -5
      vertex -17.8201 -19.9202 -5
    endloop
  endfacet
  facet normal 0 0 -1
    outer loop
      vertex -13.7533 -19.0077 -5
      vertex -17.8201 -19.9202 -5
      vertex -16.1803 -17.2443 -5
    endloop
  endfacet
  facet normal 0 0 -1
    outer loop
      vertex -12.0208 -16.9792 -5
      vertex -16.1803 -17.2443 -5
      vertex -14.1421 -14.8579 -5
    endloop
  endfacet
  facet normal 0 0 -1
    outer loop
      vertex -9.99235 -15.2467 -5
      vertex -14.1421 -14.8579 -5
      vertex -11.7557 -12.8197 -5
    endloop
  endfacet
  facet normal 0 0 -1
    outer loop
      vertex -7.71784 -13.8529 -5
      vertex -11.7557 -12.8197 -5
      vertex -9.07981 -11.1799 -5
    endloop
  endfacet
  facet normal 0 0 -1
    outer loop
      vertex -5.25329 -12.832 -5
      vertex -9.07981 -11.1799 -5
      vertex -6.18034 -9.97887 -5
    endloop
  endfacet
  facet normal 0 0 -1
    outer loop
      vertex -2.65939 -12.2093 -5
      vertex -6.18034 -9.97887 -5
      vertex -5 -9.6955 -5
    endloop
  endfacet
  facet normal 0 0 -1
    outer loop
      vertex -5 -4.07921 -5
      vertex -5.25861 -3.8206 -5
      vertex -6.18187 -2.00861 -5
    endloop
  endfacet
  facet normal 0 0 -1
    outer loop
      vertex -3.85178 1.25152 -5
      vertex -6.18187 2.00861 -5
      vertex -5.25861 3.8206 -5
    endloop
  endfacet
  facet normal 0 0 -1
    outer loop
      vertex -3.27652 2.38053 -5
      vertex -5.25861 3.8206 -5
      vertex -3.8206 5.25861 -5
    endloop
  endfacet
  facet normal 0 0 -1
    outer loop
      vertex -1.25152 3.85178 -5
      vertex -3.8206 5.25861 -5
      vertex -2.00861 6.18187 -5
    endloop
  endfacet
  facet normal 0 0 -1
    outer loop
      vertex 1.25152 3.85178 -5
      vertex -2.00861 6.18187 -5
      vertex 0 6.5 -5
    endloop
  endfacet
  facet normal 0 0 -1
    outer loop
      vertex 2.38053 3.27652 -5
      vertex 0 6.5 -5
      vertex 2.00861 6.18187 -5
    endloop
  endfacet
  facet normal 0 0 -1
    outer loop
      vertex 6.18187 -2.00861 -5
      vertex 2.00861 6.18187 -5
      vertex 3.8206 5.25861 -5
    endloop
  endfacet
  facet normal 0 0 -1
    outer loop
      vertex 6.5 0 -5
      vertex 3.8206 5.25861 -5
      vertex 5.25861 3.8206 -5
    endloop
  endfacet
  facet normal 0 0 -1
    outer loop
      vertex -16.168 -23.7467 -5
      vertex -19.0211 -22.8197 -5
      vertex -15.1471 -21.2822 -5
    endloop
  endfacet
  facet normal 0 0 -1
    outer loop
      vertex 3.85178 1.25152 -5
      vertex 2.00861 6.18187 -5
      vertex 6.18187 -2.00861 -5
    endloop
  endfacet
  facet normal 0 0 -1
    outer loop
      vertex 6.18187 -2.00861 -5
      vertex 3.8206 5.25861 -5
      vertex 6.5 0 -5
    endloop
  endfacet
  facet normal 0 0 -1
    outer loop
      vertex 2.38053 3.27652 -5
      vertex 2.00861 6.18187 -5
      vertex 3.27652 2.38053 -5
    endloop
  endfacet
  facet normal 0 0 -1
    outer loop
      vertex -1.5 -12.1181 -5
      vertex -3.27652 -2.38053 -5
      vertex -2.38053 -3.27652 -5
    endloop
  endfacet
  facet normal 0 0 -1
    outer loop
      vertex 3.85178 -1.25152 -5
      vertex 5.25861 -3.8206 -5
      vertex 5 -4.07921 -5
    endloop
  endfacet
  facet normal 0 0 -1
    outer loop
      vertex -1.5 -12.1181 -5
      vertex -2.38053 -3.27652 -5
      vertex -1.5 -3.72517 -5
    endloop
  endfacet
  facet normal 0 0 -1
    outer loop
      vertex 9.07981 -11.1799 -5
      vertex 12.0208 -16.9792 -5
      vertex 9.99235 -15.2467 -5
    endloop
  endfacet
  facet normal 0 0 -1
    outer loop
      vertex 11.7557 -12.8197 -5
      vertex 20 -30.5 -5
      vertex 15.1471 -21.2822 -5
    endloop
  endfacet
  facet normal 0 0 -1
    outer loop
      vertex 14.1421 -14.8579 -5
      vertex 20 -30.5 -5
      vertex 11.7557 -12.8197 -5
    endloop
  endfacet
  facet normal 0 0 -1
    outer loop
      vertex 5.25861 -3.8206 -5
      vertex 4.05 0 -5
      vertex 3.85178 1.25152 -5
    endloop
  endfacet
  facet normal 0 0 -1
    outer loop
      vertex -16.7907 -26.3406 -5
      vertex -19.7538 -25.8713 -5
      vertex -16.168 -23.7467 -5
    endloop
  endfacet
  facet normal 0 0 -1
    outer loop
      vertex 20 -30.5 -5
      vertex 14.1421 -14.8579 -5
      vertex 16.1803 -17.2443 -5
    endloop
  endfacet
  facet normal 0 0 -1
    outer loop
      vertex 16.1803 -17.2443 -5
      vertex 17.8201 -19.9202 -5
      vertex 20 -30.5 -5
    endloop
  endfacet
  facet normal 0 0 -1
    outer loop
      vertex 20 -30.5 -5
      vertex 17.8201 -19.9202 -5
      vertex 19.0211 -22.8197 -5
    endloop
  endfacet
  facet normal 0 0 -1
    outer loop
      vertex 20 -30.5 -5
      vertex 19.0211 -22.8197 -5
      vertex 19.7538 -25.8713 -5
    endloop
  endfacet
  facet normal 0 0 -1
    outer loop
      vertex 20 -30.5 -5
      vertex 19.7538 -25.8713 -5
      vertex 19.8819 -27.5 -5
    endloop
  endfacet
  facet normal 0 0 -1
    outer loop
      vertex 20 -30.5 -5
      vertex 19.8819 -27.5 -5
      vertex 20 -27.5 -5
    endloop
  endfacet
  facet normal 0 0 -1
    outer loop
      vertex -16.8819 -27.5 -5
      vertex -19.8819 -27.5 -5
      vertex -16.7907 -26.3406 -5
    endloop
  endfacet
  facet normal 0 0 -1
    outer loop
      vertex 16.8819 -27.5 -5
      vertex 20 -30.5 -5
      vertex -16.8819 -27.5 -5
    endloop
  endfacet
  facet normal 0 0 -1
    outer loop
      vertex 20 -30.5 -5
      vertex -19.8819 -27.5 -5
      vertex -16.8819 -27.5 -5
    endloop
  endfacet
  facet normal 0 0 -1
    outer loop
      vertex 16.7907 -26.3406 -5
      vertex 20 -30.5 -5
      vertex 16.8819 -27.5 -5
    endloop
  endfacet
  facet normal 0 0 -1
    outer loop
      vertex 1.5 -3.72517 -5
      vertex 5 -9.6955 -5
      vertex 5.25329 -12.832 -5
    endloop
  endfacet
  facet normal 0 0 -1
    outer loop
      vertex 16.168 -23.7467 -5
      vertex 20 -30.5 -5
      vertex 16.7907 -26.3406 -5
    endloop
  endfacet
  facet normal 0 0 -1
    outer loop
      vertex 11.7557 -12.8197 -5
      vertex 15.1471 -21.2822 -5
      vertex 13.7533 -19.0077 -5
    endloop
  endfacet
  facet normal 0 0 -1
    outer loop
      vertex 11.7557 -12.8197 -5
      vertex 13.7533 -19.0077 -5
      vertex 9.07981 -11.1799 -5
    endloop
  endfacet
  facet normal 0 0 -1
    outer loop
      vertex -15.1471 -21.2822 -5
      vertex -17.8201 -19.9202 -5
      vertex -13.7533 -19.0077 -5
    endloop
  endfacet
  facet normal 0 0 -1
    outer loop
      vertex 5 -9.6955 -5
      vertex 1.5 -3.72517 -5
      vertex 2.38053 -3.27652 -5
    endloop
  endfacet
  facet normal 0 0 -1
    outer loop
      vertex 9.07981 -11.1799 -5
      vertex 9.99235 -15.2467 -5
      vertex 6.18034 -9.97887 -5
    endloop
  endfacet
  facet normal 0 0 -1
    outer loop
      vertex -13.7533 -19.0077 -5
      vertex -16.1803 -17.2443 -5
      vertex -12.0208 -16.9792 -5
    endloop
  endfacet
  facet normal 0 0 -1
    outer loop
      vertex -2.65939 -12.2093 -5
      vertex -5 -9.6955 -5
      vertex -1.5 -12.1181 -5
    endloop
  endfacet
  facet normal 0 0 -1
    outer loop
      vertex 5 -9.6955 -5
      vertex 7.71784 -13.8529 -5
      vertex 5.25329 -12.832 -5
    endloop
  endfacet
  facet normal 0 0 -1
    outer loop
      vertex 15.1471 -21.2822 -5
      vertex 20 -30.5 -5
      vertex 16.168 -23.7467 -5
    endloop
  endfacet
  facet normal 0 0 -1
    outer loop
      vertex 7.71784 -13.8529 -5
      vertex 5 -9.6955 -5
      vertex 6.18034 -9.97887 -5
    endloop
  endfacet
  facet normal 0 0 -1
    outer loop
      vertex -12.0208 -16.9792 -5
      vertex -14.1421 -14.8579 -5
      vertex -9.99235 -15.2467 -5
    endloop
  endfacet
  facet normal 0 0 -1
    outer loop
      vertex 4.05 0 -5
      vertex 5.25861 -3.8206 -5
      vertex 3.85178 -1.25152 -5
    endloop
  endfacet
  facet normal 0 0 -1
    outer loop
      vertex 5 -9.6955 -5
      vertex 2.38053 -3.27652 -5
      vertex 3.27652 -2.38053 -5
    endloop
  endfacet
  facet normal 0 0 -1
    outer loop
      vertex 5 -9.6955 -5
      vertex 3.27652 -2.38053 -5
      vertex 5 -4.07921 -5
    endloop
  endfacet
  facet normal 0 0 -1
    outer loop
      vertex 7.71784 -13.8529 -5
      vertex 6.18034 -9.97887 -5
      vertex 9.99235 -15.2467 -5
    endloop
  endfacet
  facet normal 0 0 -1
    outer loop
      vertex 3.85178 1.25152 -5
      vertex 3.27652 2.38053 -5
      vertex 2.00861 6.18187 -5
    endloop
  endfacet
  facet normal 0 0 -1
    outer loop
      vertex 1.25152 3.85178 -5
      vertex 0 6.5 -5
      vertex 2.38053 3.27652 -5
    endloop
  endfacet
  facet normal 0 0 -1
    outer loop
      vertex 0 4.05 -5
      vertex -2.00861 6.18187 -5
      vertex 1.25152 3.85178 -5
    endloop
  endfacet
  facet normal 0 0 -1
    outer loop
      vertex -1.25152 3.85178 -5
      vertex -2.00861 6.18187 -5
      vertex 0 4.05 -5
    endloop
  endfacet
  facet normal 0 0 -1
    outer loop
      vertex -2.38053 3.27652 -5
      vertex -3.8206 5.25861 -5
      vertex -1.25152 3.85178 -5
    endloop
  endfacet
  facet normal 0 0 -1
    outer loop
      vertex -3.27652 2.38053 -5
      vertex -3.8206 5.25861 -5
      vertex -2.38053 3.27652 -5
    endloop
  endfacet
  facet normal 0 0 -1
    outer loop
      vertex -1.5 -12.1181 -5
      vertex -6.5 0 -5
      vertex -3.27652 -2.38053 -5
    endloop
  endfacet
  facet normal 0 0 -1
    outer loop
      vertex 3.85178 -1.25152 -5
      vertex 5 -4.07921 -5
      vertex 3.27652 -2.38053 -5
    endloop
  endfacet
  facet normal 0 0 -1
    outer loop
      vertex -4.05 0 -5
      vertex -6.18187 2.00861 -5
      vertex -3.85178 1.25152 -5
    endloop
  endfacet
  facet normal 0 0 -1
    outer loop
      vertex -1.5 -12.1181 -5
      vertex -5 -4.07921 -5
      vertex -6.5 0 -5
    endloop
  endfacet
  facet normal 0 0 -1
    outer loop
      vertex -6.5 0 -5
      vertex -6.18187 2.00861 -5
      vertex -3.85178 -1.25152 -5
    endloop
  endfacet
  facet normal 0 0 -1
    outer loop
      vertex -6.5 0 -5
      vertex -3.85178 -1.25152 -5
      vertex -3.27652 -2.38053 -5
    endloop
  endfacet
  facet normal 0 0 -1
    outer loop
      vertex 1.5 -3.72517 -5
      vertex 2.65939 -12.2093 -5
      vertex 1.5 -12.1181 -5
    endloop
  endfacet
  facet normal 0 0 -1
    outer loop
      vertex 1.5 -3.72517 -5
      vertex 5.25329 -12.832 -5
      vertex 2.65939 -12.2093 -5
    endloop
  endfacet
  facet normal 0 0 -1
    outer loop
      vertex -1.5 -12.1181 -5
      vertex -5 -9.6955 -5
      vertex -5 -4.07921 -5
    endloop
  endfacet
  facet normal 0 0 -1
    outer loop
      vertex -5 -4.07921 -5
      vertex -6.18187 -2.00861 -5
      vertex -6.5 0 -5
    endloop
  endfacet
  facet normal 0 0 -1
    outer loop
      vertex -3.85178 1.25152 -5
      vertex -5.25861 3.8206 -5
      vertex -3.27652 2.38053 -5
    endloop
  endfacet
  facet normal 0 0 -1
    outer loop
      vertex -3.85178 -1.25152 -5
      vertex -6.18187 2.00861 -5
      vertex -4.05 0 -5
    endloop
  endfacet
  facet normal 0 0 -1
    outer loop
      vertex 6.5 0 -5
      vertex 5.25861 3.8206 -5
      vertex 6.18187 2.00861 -5
    endloop
  endfacet
  facet normal 0 0 -1
    outer loop
      vertex 5.25861 -3.8206 -5
      vertex 3.85178 1.25152 -5
      vertex 6.18187 -2.00861 -5
    endloop
  endfacet
  facet normal 0 0 -1
    outer loop
      vertex 12.0208 -16.9792 -5
      vertex 9.07981 -11.1799 -5
      vertex 13.7533 -19.0077 -5
    endloop
  endfacet
  facet normal 0 0 -1
    outer loop
      vertex -9.99235 -15.2467 -5
      vertex -11.7557 -12.8197 -5
      vertex -7.71784 -13.8529 -5
    endloop
  endfacet
  facet normal 0 0 -1
    outer loop
      vertex -7.71784 -13.8529 -5
      vertex -9.07981 -11.1799 -5
      vertex -5.25329 -12.832 -5
    endloop
  endfacet
  facet normal 0 0 -1
    outer loop
      vertex -5.25329 -12.832 -5
      vertex -6.18034 -9.97887 -5
      vertex -2.65939 -12.2093 -5
    endloop
  endfacet
  facet normal 0 1 0
    outer loop
      vertex -20 -27.5 -5
      vertex -20 -27.5 5
      vertex -19.8819 -27.5 -5
    endloop
  endfacet
  facet normal 0 1 0
    outer loop
      vertex -19.8819 -27.5 -5
      vertex -20 -27.5 5
      vertex -19.8819 -27.5 5
    endloop
  endfacet
  facet normal 0 0 1
    outer loop
      vertex -20 -27.5 5
      vertex -20 -30.5 5
      vertex 20 -30.5 5
    endloop
  endfacet
  facet normal 0 0 1
    outer loop
      vertex -19.8819 -27.5 5
      vertex -20 -27.5 5
      vertex 20 -30.5 5
    endloop
  endfacet
  facet normal 0 0 1
    outer loop
      vertex 19.8819 -27.5 5
      vertex 16.8819 -27.5 5
      vertex 20 -30.5 5
    endloop
  endfacet
  facet normal 0 0 1
    outer loop
      vertex 20 -27.5 5
      vertex 19.8819 -27.5 5
      vertex 20 -30.5 5
    endloop
  endfacet
  facet normal 0 0 1
    outer loop
      vertex 16.168 -23.7467 5
      vertex 16.7907 -26.3406 5
      vertex 19.7538 -25.8713 5
    endloop
  endfacet
  facet normal 0 0 1
    outer loop
      vertex -16.7907 -26.3406 5
      vertex -16.168 -23.7467 5
      vertex -19.7538 -25.8713 5
    endloop
  endfacet
  facet normal 0 0 1
    outer loop
      vertex 1.5 -3.72517 5
      vertex 5.25861 -3.8206 5
      vertex 6.18187 -2.00861 5
    endloop
  endfacet
  facet normal 0 0 1
    outer loop
      vertex 5.25329 -12.832 5
      vertex 7.71784 -13.8529 5
      vertex 9.07981 -11.1799 5
    endloop
  endfacet
  facet normal 0 0 1
    outer loop
      vertex -5.25329 -12.832 5
      vertex -5 -9.6955 5
      vertex -7.71784 -13.8529 5
    endloop
  endfacet
  facet normal 0 0 1
    outer loop
      vertex -1.5 -12.1181 5
      vertex -5 -9.6955 5
      vertex -2.65939 -12.2093 5
    endloop
  endfacet
  facet normal 0 0 1
    outer loop
      vertex -19.7538 -25.8713 5
      vertex -16.1803 -17.2443 5
      vertex -17.8201 -19.9202 5
    endloop
  endfacet
  facet normal 0 0 1
    outer loop
      vertex -6.5 0 5
      vertex -2.00861 6.18187 5
      vertex -3.8206 5.25861 5
    endloop
  endfacet
  facet normal 0 0 1
    outer loop
      vertex 0 4.05 5
      vertex 1.25152 3.85178 5
      vertex 2.00861 6.18187 5
    endloop
  endfacet
  facet normal 0 0 1
    outer loop
      vertex -3.8206 5.25861 5
      vertex -5.25861 3.8206 5
      vertex -6.5 0 5
    endloop
  endfacet
  facet normal 0 0 1
    outer loop
      vertex -19.7538 -25.8713 5
      vertex -14.1421 -14.8579 5
      vertex -16.1803 -17.2443 5
    endloop
  endfacet
  facet normal 0 0 1
    outer loop
      vertex -3.85178 1.25152 5
      vertex -2.00861 6.18187 5
      vertex -6.18187 -2.00861 5
    endloop
  endfacet
  facet normal 0 0 1
    outer loop
      vertex -4.05 0 5
      vertex -3.85178 1.25152 5
      vertex -6.18187 -2.00861 5
    endloop
  endfacet
  facet normal 0 0 1
    outer loop
      vertex -3.85178 -1.25152 5
      vertex -4.05 0 5
      vertex -5.25861 -3.8206 5
    endloop
  endfacet
  facet normal 0 0 1
    outer loop
      vertex -3.27652 -2.38053 5
      vertex -5.25861 -3.8206 5
      vertex -5 -4.07921 5
    endloop
  endfacet
  facet normal 0 0 1
    outer loop
      vertex -19.7538 -25.8713 5
      vertex -11.7557 -12.8197 5
      vertex -14.1421 -14.8579 5
    endloop
  endfacet
  facet normal 0 0 1
    outer loop
      vertex -12.0208 -16.9792 5
      vertex -9.99235 -15.2467 5
      vertex -6.18034 -9.97887 5
    endloop
  endfacet
  facet normal 0 0 1
    outer loop
      vertex -5 -9.6955 5
      vertex -6.18034 -9.97887 5
      vertex -9.99235 -15.2467 5
    endloop
  endfacet
  facet normal 0 0 1
    outer loop
      vertex -6.18034 -9.97887 5
      vertex -13.7533 -19.0077 5
      vertex -12.0208 -16.9792 5
    endloop
  endfacet
  facet normal 0 0 1
    outer loop
      vertex -16.8819 -27.5 5
      vertex -19.8819 -27.5 5
      vertex 20 -30.5 5
    endloop
  endfacet
  facet normal 0 0 1
    outer loop
      vertex 16.8819 -27.5 5
      vertex -16.8819 -27.5 5
      vertex 20 -30.5 5
    endloop
  endfacet
  facet normal 0 0 1
    outer loop
      vertex 1.5 -3.72517 5
      vertex 6.18187 -2.00861 5
      vertex 2.38053 -3.27652 5
    endloop
  endfacet
  facet normal 0 0 1
    outer loop
      vertex -19.7538 -25.8713 5
      vertex -13.7533 -19.0077 5
      vertex -9.07981 -11.1799 5
    endloop
  endfacet
  facet normal 0 0 1
    outer loop
      vertex -19.7538 -25.8713 5
      vertex -15.1471 -21.2822 5
      vertex -13.7533 -19.0077 5
    endloop
  endfacet
  facet normal 0 0 1
    outer loop
      vertex 1.5 -3.72517 5
      vertex 1.5 -12.1181 5
      vertex 5 -9.6955 5
    endloop
  endfacet
  facet normal 0 0 1
    outer loop
      vertex -19.7538 -25.8713 5
      vertex -9.07981 -11.1799 5
      vertex -11.7557 -12.8197 5
    endloop
  endfacet
  facet normal 0 0 1
    outer loop
      vertex -3.27652 2.38053 5
      vertex -2.00861 6.18187 5
      vertex -3.85178 1.25152 5
    endloop
  endfacet
  facet normal 0 0 1
    outer loop
      vertex 0 6.5 5
      vertex -2.00861 6.18187 5
      vertex -3.27652 2.38053 5
    endloop
  endfacet
  facet normal 0 0 1
    outer loop
      vertex 1.5 -3.72517 5
      vertex 5 -9.6955 5
      vertex 5 -4.07921 5
    endloop
  endfacet
  facet normal 0 0 1
    outer loop
      vertex 0 6.5 5
      vertex -3.27652 2.38053 5
      vertex -2.38053 3.27652 5
    endloop
  endfacet
  facet normal 0 0 1
    outer loop
      vertex 2.00861 6.18187 5
      vertex 0 6.5 5
      vertex -1.25152 3.85178 5
    endloop
  endfacet
  facet normal 0 0 1
    outer loop
      vertex 2.38053 3.27652 5
      vertex 3.27652 2.38053 5
      vertex 3.8206 5.25861 5
    endloop
  endfacet
  facet normal 0 0 1
    outer loop
      vertex 2.00861 6.18187 5
      vertex -1.25152 3.85178 5
      vertex 0 4.05 5
    endloop
  endfacet
  facet normal 0 0 1
    outer loop
      vertex 3.8206 5.25861 5
      vertex 2.00861 6.18187 5
      vertex 1.25152 3.85178 5
    endloop
  endfacet
  facet normal 0 0 1
    outer loop
      vertex 1.5 -3.72517 5
      vertex 5 -4.07921 5
      vertex 5.25861 -3.8206 5
    endloop
  endfacet
  facet normal 0 0 1
    outer loop
      vertex 4.05 0 5
      vertex 3.85178 -1.25152 5
      vertex 6.18187 2.00861 5
    endloop
  endfacet
  facet normal 0 0 1
    outer loop
      vertex 5.25861 3.8206 5
      vertex 3.8206 5.25861 5
      vertex 3.27652 2.38053 5
    endloop
  endfacet
  facet normal 0 0 1
    outer loop
      vertex -3.27652 -2.38053 5
      vertex -3.85178 -1.25152 5
      vertex -5.25861 -3.8206 5
    endloop
  endfacet
  facet normal 0 0 1
    outer loop
      vertex 6.18187 2.00861 5
      vertex 5.25861 3.8206 5
      vertex 3.85178 1.25152 5
    endloop
  endfacet
  facet normal 0 0 1
    outer loop
      vertex -2.38053 3.27652 5
      vertex -1.25152 3.85178 5
      vertex 0 6.5 5
    endloop
  endfacet
  facet normal 0 0 1
    outer loop
      vertex 6.18187 2.00861 5
      vertex 3.85178 1.25152 5
      vertex 4.05 0 5
    endloop
  endfacet
  facet normal 0 0 1
    outer loop
      vertex 6.5 0 5
      vertex 6.18187 2.00861 5
      vertex 3.85178 -1.25152 5
    endloop
  endfacet
  facet normal 0 0 1
    outer loop
      vertex 6.5 0 5
      vertex 3.85178 -1.25152 5
      vertex 3.27652 -2.38053 5
    endloop
  endfacet
  facet normal 0 0 1
    outer loop
      vertex -1.5 -12.1181 5
      vertex -1.5 -3.72517 5
      vertex -5 -9.6955 5
    endloop
  endfacet
  facet normal 0 0 1
    outer loop
      vertex -2.65939 -12.2093 5
      vertex -5 -9.6955 5
      vertex -5.25329 -12.832 5
    endloop
  endfacet
  facet normal 0 0 1
    outer loop
      vertex 6.18034 -9.97887 5
      vertex 5 -9.6955 5
      vertex 2.65939 -12.2093 5
    endloop
  endfacet
  facet normal 0 0 1
    outer loop
      vertex -7.71784 -13.8529 5
      vertex -5 -9.6955 5
      vertex -9.99235 -15.2467 5
    endloop
  endfacet
  facet normal 0 0 1
    outer loop
      vertex 9.07981 -11.1799 5
      vertex 6.18034 -9.97887 5
      vertex 5.25329 -12.832 5
    endloop
  endfacet
  facet normal 0 0 1
    outer loop
      vertex 9.99235 -15.2467 5
      vertex 12.0208 -16.9792 5
      vertex 14.1421 -14.8579 5
    endloop
  endfacet
  facet normal 0 0 1
    outer loop
      vertex 11.7557 -12.8197 5
      vertex 9.07981 -11.1799 5
      vertex 7.71784 -13.8529 5
    endloop
  endfacet
  facet normal 0 0 1
    outer loop
      vertex 14.1421 -14.8579 5
      vertex 11.7557 -12.8197 5
      vertex 9.99235 -15.2467 5
    endloop
  endfacet
  facet normal 0 0 1
    outer loop
      vertex 13.7533 -19.0077 5
      vertex 15.1471 -21.2822 5
      vertex 17.8201 -19.9202 5
    endloop
  endfacet
  facet normal 0 0 1
    outer loop
      vertex 16.1803 -17.2443 5
      vertex 14.1421 -14.8579 5
      vertex 12.0208 -16.9792 5
    endloop
  endfacet
  facet normal 0 0 1
    outer loop
      vertex 12.0208 -16.9792 5
      vertex 13.7533 -19.0077 5
      vertex 16.1803 -17.2443 5
    endloop
  endfacet
  facet normal 0 0 1
    outer loop
      vertex 17.8201 -19.9202 5
      vertex 16.1803 -17.2443 5
      vertex 13.7533 -19.0077 5
    endloop
  endfacet
  facet normal 0 0 1
    outer loop
      vertex 19.0211 -22.8197 5
      vertex 17.8201 -19.9202 5
      vertex 15.1471 -21.2822 5
    endloop
  endfacet
  facet normal 0 0 1
    outer loop
      vertex -16.8819 -27.5 5
      vertex -16.7907 -26.3406 5
      vertex -19.8819 -27.5 5
    endloop
  endfacet
  facet normal 0 0 1
    outer loop
      vertex 19.7538 -25.8713 5
      vertex 19.0211 -22.8197 5
      vertex 16.168 -23.7467 5
    endloop
  endfacet
  facet normal 0 0 1
    outer loop
      vertex 19.7538 -25.8713 5
      vertex 16.7907 -26.3406 5
      vertex 19.8819 -27.5 5
    endloop
  endfacet
  facet normal 0 0 1
    outer loop
      vertex 16.7907 -26.3406 5
      vertex 16.8819 -27.5 5
      vertex 19.8819 -27.5 5
    endloop
  endfacet
  facet normal 0 0 1
    outer loop
      vertex -19.7538 -25.8713 5
      vertex -17.8201 -19.9202 5
      vertex -19.0211 -22.8197 5
    endloop
  endfacet
  facet normal 0 0 1
    outer loop
      vertex -6.18187 2.00861 5
      vertex -6.5 0 5
      vertex -5.25861 3.8206 5
    endloop
  endfacet
  facet normal 0 0 1
    outer loop
      vertex -6.5 0 5
      vertex -6.18187 -2.00861 5
      vertex -2.00861 6.18187 5
    endloop
  endfacet
  facet normal 0 0 1
    outer loop
      vertex -6.18187 -2.00861 5
      vertex -5.25861 -3.8206 5
      vertex -4.05 0 5
    endloop
  endfacet
  facet normal 0 0 1
    outer loop
      vertex -6.18034 -9.97887 5
      vertex -9.07981 -11.1799 5
      vertex -13.7533 -19.0077 5
    endloop
  endfacet
  facet normal 0 0 1
    outer loop
      vertex -5 -4.07921 5
      vertex -2.38053 -3.27652 5
      vertex -3.27652 -2.38053 5
    endloop
  endfacet
  facet normal 0 0 1
    outer loop
      vertex 3.27652 2.38053 5
      vertex 3.85178 1.25152 5
      vertex 5.25861 3.8206 5
    endloop
  endfacet
  facet normal 0 0 1
    outer loop
      vertex -5 -4.07921 5
      vertex -1.5 -3.72517 5
      vertex -2.38053 -3.27652 5
    endloop
  endfacet
  facet normal 0 0 1
    outer loop
      vertex 1.25152 3.85178 5
      vertex 2.38053 3.27652 5
      vertex 3.8206 5.25861 5
    endloop
  endfacet
  facet normal 0 0 1
    outer loop
      vertex -5 -4.07921 5
      vertex -5 -9.6955 5
      vertex -1.5 -3.72517 5
    endloop
  endfacet
  facet normal 0 0 1
    outer loop
      vertex 1.5 -12.1181 5
      vertex 2.65939 -12.2093 5
      vertex 5 -9.6955 5
    endloop
  endfacet
  facet normal 0 0 1
    outer loop
      vertex 2.65939 -12.2093 5
      vertex 5.25329 -12.832 5
      vertex 6.18034 -9.97887 5
    endloop
  endfacet
  facet normal 0 0 1
    outer loop
      vertex -16.168 -23.7467 5
      vertex -15.1471 -21.2822 5
      vertex -19.7538 -25.8713 5
    endloop
  endfacet
  facet normal 0 0 1
    outer loop
      vertex 2.38053 -3.27652 5
      vertex 6.5 0 5
      vertex 3.27652 -2.38053 5
    endloop
  endfacet
  facet normal 0 0 1
    outer loop
      vertex 2.38053 -3.27652 5
      vertex 6.18187 -2.00861 5
      vertex 6.5 0 5
    endloop
  endfacet
  facet normal 0 0 1
    outer loop
      vertex 15.1471 -21.2822 5
      vertex 16.168 -23.7467 5
      vertex 19.0211 -22.8197 5
    endloop
  endfacet
  facet normal 0 0 1
    outer loop
      vertex 7.71784 -13.8529 5
      vertex 9.99235 -15.2467 5
      vertex 11.7557 -12.8197 5
    endloop
  endfacet
  facet normal 0 0 1
    outer loop
      vertex -19.7538 -25.8713 5
      vertex -19.8819 -27.5 5
      vertex -16.7907 -26.3406 5
    endloop
  endfacet
  facet normal 1 0 0
    outer loop
      vertex 20 -30.5 5
      vertex 20 -30.5 -5
      vertex 20 -27.5 -5
    endloop
  endfacet
  facet normal 1 0 0
    outer loop
      vertex 20 -27.5 5
      vertex 20 -30.5 5
      vertex 20 -27.5 -5
    endloop
  endfacet
  facet normal 0.987688 3.47354e-17 0.156434
    outer loop
      vertex -1.42658 -30.5 -0.463525
      vertex -1.42658 -27.5 -0.463525
      vertex -1.5 -27.5 -5.55112e-16
    endloop
  endfacet
  facet normal 0.987688 3.47354e-17 0.156434
    outer loop
      vertex -1.5 -30.5 1.11022e-16
      vertex -1.42658 -30.5 -0.463525
      vertex -1.5 -27.5 -5.55112e-16
    endloop
  endfacet
  facet normal 0.891006 1.00806e-16 0.453991
    outer loop
      vertex -1.21352 -30.5 -0.881678
      vertex -1.21352 -27.5 -0.881678
      vertex -1.42658 -27.5 -0.463525
    endloop
  endfacet
  facet normal 0.891006 1.00806e-16 0.453991
    outer loop
      vertex -1.42658 -30.5 -0.463525
      vertex -1.21352 -30.5 -0.881678
      vertex -1.42658 -27.5 -0.463525
    endloop
  endfacet
  facet normal 0.707107 1.57009e-16 0.707107
    outer loop
      vertex -0.881678 -30.5 -1.21352
      vertex -0.881678 -27.5 -1.21353
      vertex -1.21352 -27.5 -0.881678
    endloop
  endfacet
  facet normal 0.707107 1.57009e-16 0.707107
    outer loop
      vertex -1.21352 -30.5 -0.881678
      vertex -0.881678 -30.5 -1.21352
      vertex -1.21352 -27.5 -0.881678
    endloop
  endfacet
  facet normal 0.453991 1.97843e-16 0.891006
    outer loop
      vertex -0.463525 -30.5 -1.42658
      vertex -0.463525 -27.5 -1.42659
      vertex -0.881678 -27.5 -1.21353
    endloop
  endfacet
  facet normal 0.453991 1.97843e-16 0.891006
    outer loop
      vertex -0.881678 -30.5 -1.21352
      vertex -0.463525 -30.5 -1.42658
      vertex -0.881678 -27.5 -1.21353
    endloop
  endfacet
  facet normal 0.156434 2.19311e-16 0.987688
    outer loop
      vertex 0 -30.5 -1.5
      vertex 0 -27.5 -1.5
      vertex -0.463525 -27.5 -1.42659
    endloop
  endfacet
  facet normal 0.156434 2.19311e-16 0.987688
    outer loop
      vertex -0.463525 -30.5 -1.42658
      vertex 0 -30.5 -1.5
      vertex -0.463525 -27.5 -1.42659
    endloop
  endfacet
  facet normal -0.156434 2.19311e-16 0.987688
    outer loop
      vertex 0.463525 -30.5 -1.42658
      vertex 0.463525 -27.5 -1.42659
      vertex 0 -27.5 -1.5
    endloop
  endfacet
  facet normal -0.156434 2.19311e-16 0.987688
    outer loop
      vertex 0 -30.5 -1.5
      vertex 0.463525 -30.5 -1.42658
      vertex 0 -27.5 -1.5
    endloop
  endfacet
  facet normal -0.453991 1.97843e-16 0.891006
    outer loop
      vertex 0.881678 -30.5 -1.21352
      vertex 0.881678 -27.5 -1.21353
      vertex 0.463525 -27.5 -1.42659
    endloop
  endfacet
  facet normal -0.453991 1.97843e-16 0.891006
    outer loop
      vertex 0.463525 -30.5 -1.42658
      vertex 0.881678 -30.5 -1.21352
      vertex 0.463525 -27.5 -1.42659
    endloop
  endfacet
  facet normal -0.707107 1.57009e-16 0.707107
    outer loop
      vertex 1.21352 -27.5 -0.881678
      vertex 0.881678 -27.5 -1.21353
      vertex 1.21352 -30.5 -0.881678
    endloop
  endfacet
  facet normal -0.707107 1.57009e-16 0.707107
    outer loop
      vertex 1.21352 -30.5 -0.881678
      vertex 0.881678 -27.5 -1.21353
      vertex 0.881678 -30.5 -1.21352
    endloop
  endfacet
  facet normal -0.891006 1.00806e-16 0.453991
    outer loop
      vertex 1.42658 -27.5 -0.463525
      vertex 1.21352 -27.5 -0.881678
      vertex 1.42658 -30.5 -0.463525
    endloop
  endfacet
  facet normal -0.891006 1.00806e-16 0.453991
    outer loop
      vertex 1.42658 -30.5 -0.463525
      vertex 1.21352 -27.5 -0.881678
      vertex 1.21352 -30.5 -0.881678
    endloop
  endfacet
  facet normal -0.987688 3.47354e-17 0.156434
    outer loop
      vertex 1.5 -27.5 -5.55112e-16
      vertex 1.42658 -27.5 -0.463525
      vertex 1.5 -30.5 1.11022e-16
    endloop
  endfacet
  facet normal -0.987688 3.47354e-17 0.156434
    outer loop
      vertex 1.5 -30.5 1.11022e-16
      vertex 1.42658 -27.5 -0.463525
      vertex 1.42658 -30.5 -0.463525
    endloop
  endfacet
  facet normal -0.987688 -3.47354e-17 -0.156434
    outer loop
      vertex 1.5 -27.5 -5.55112e-16
      vertex 1.5 -30.5 1.11022e-16
      vertex 1.42658 -27.5 0.463525
    endloop
  endfacet
  facet normal -0.987688 -3.47354e-17 -0.156434
    outer loop
      vertex 1.42658 -27.5 0.463525
      vertex 1.5 -30.5 1.11022e-16
      vertex 1.42658 -30.5 0.463525
    endloop
  endfacet
  facet normal -0.891006 -1.00806e-16 -0.453991
    outer loop
      vertex 1.42658 -27.5 0.463525
      vertex 1.42658 -30.5 0.463525
      vertex 1.21352 -27.5 0.881678
    endloop
  endfacet
  facet normal -0.891006 -1.00806e-16 -0.453991
    outer loop
      vertex 1.21352 -27.5 0.881678
      vertex 1.42658 -30.5 0.463525
      vertex 1.21352 -30.5 0.881678
    endloop
  endfacet
  facet normal -0.707107 -1.57009e-16 -0.707107
    outer loop
      vertex 1.21352 -27.5 0.881678
      vertex 1.21352 -30.5 0.881678
      vertex 0.881678 -27.5 1.21352
    endloop
  endfacet
  facet normal -0.707107 -1.57009e-16 -0.707107
    outer loop
      vertex 0.881678 -27.5 1.21352
      vertex 1.21352 -30.5 0.881678
      vertex 0.881678 -30.5 1.21352
    endloop
  endfacet
  facet normal -0.453991 -1.97843e-16 -0.891006
    outer loop
      vertex 0.881678 -27.5 1.21352
      vertex 0.881678 -30.5 1.21352
      vertex 0.463525 -27.5 1.42658
    endloop
  endfacet
  facet normal -0.453991 -1.97843e-16 -0.891006
    outer loop
      vertex 0.463525 -27.5 1.42658
      vertex 0.881678 -30.5 1.21352
      vertex 0.463525 -30.5 1.42658
    endloop
  endfacet
  facet normal -0.156434 -2.19311e-16 -0.987688
    outer loop
      vertex 0.463525 -27.5 1.42658
      vertex 0.463525 -30.5 1.42658
      vertex 0 -27.5 1.5
    endloop
  endfacet
  facet normal -0.156434 -2.19311e-16 -0.987688
    outer loop
      vertex 0 -27.5 1.5
      vertex 0.463525 -30.5 1.42658
      vertex 0 -30.5 1.5
    endloop
  endfacet
  facet normal 0.156434 -2.19311e-16 -0.987688
    outer loop
      vertex 0 -27.5 1.5
      vertex 0 -30.5 1.5
      vertex -0.463525 -27.5 1.42658
    endloop
  endfacet
  facet normal 0.156434 -2.19311e-16 -0.987688
    outer loop
      vertex -0.463525 -27.5 1.42658
      vertex 0 -30.5 1.5
      vertex -0.463525 -30.5 1.42658
    endloop
  endfacet
  facet normal 0.453991 -1.97843e-16 -0.891006
    outer loop
      vertex -0.463525 -27.5 1.42658
      vertex -0.463525 -30.5 1.42658
      vertex -0.881678 -27.5 1.21352
    endloop
  endfacet
  facet normal 0.453991 -1.97843e-16 -0.891006
    outer loop
      vertex -0.881678 -27.5 1.21352
      vertex -0.463525 -30.5 1.42658
      vertex -0.881678 -30.5 1.21352
    endloop
  endfacet
  facet normal 0.707107 -1.57009e-16 -0.707107
    outer loop
      vertex -1.21352 -27.5 0.881678
      vertex -0.881678 -27.5 1.21352
      vertex -0.881678 -30.5 1.21352
    endloop
  endfacet
  facet normal 0.707107 -1.57009e-16 -0.707107
    outer loop
      vertex -1.21352 -30.5 0.881678
      vertex -1.21352 -27.5 0.881678
      vertex -0.881678 -30.5 1.21352
    endloop
  endfacet
  facet normal 0.891006 -1.00806e-16 -0.453991
    outer loop
      vertex -1.42658 -27.5 0.463525
      vertex -1.21352 -27.5 0.881678
      vertex -1.21352 -30.5 0.881678
    endloop
  endfacet
  facet normal 0.891006 -1.00806e-16 -0.453991
    outer loop
      vertex -1.42658 -30.5 0.463525
      vertex -1.42658 -27.5 0.463525
      vertex -1.21352 -30.5 0.881678
    endloop
  endfacet
  facet normal 0.987688 -3.47354e-17 -0.156434
    outer loop
      vertex -1.5 -27.5 -5.55112e-16
      vertex -1.42658 -27.5 0.463525
      vertex -1.42658 -30.5 0.463525
    endloop
  endfacet
  facet normal 0.987688 -3.47354e-17 -0.156434
    outer loop
      vertex -1.5 -30.5 1.11022e-16
      vertex -1.5 -27.5 -5.55112e-16
      vertex -1.42658 -30.5 0.463525
    endloop
  endfacet
  facet normal 0 1 0
    outer loop
      vertex 19.8819 -27.5 -5
      vertex 19.8819 -27.5 5
      vertex 20 -27.5 -5
    endloop
  endfacet
  facet normal 0 1 0
    outer loop
      vertex 20 -27.5 -5
      vertex 19.8819 -27.5 5
      vertex 20 -27.5 5
    endloop
  endfacet
  facet normal 0.996917 0.078459 0
    outer loop
      vertex 19.8819 -27.5 -5
      vertex 19.7538 -25.8713 -5
      vertex 19.7538 -25.8713 5
    endloop
  endfacet
  facet normal 0.996917 0.078459 0
    outer loop
      vertex 19.8819 -27.5 5
      vertex 19.8819 -27.5 -5
      vertex 19.7538 -25.8713 5
    endloop
  endfacet
  facet normal 0.97237 0.233445 0
    outer loop
      vertex 19.7538 -25.8713 -5
      vertex 19.0211 -22.8197 -5
      vertex 19.0211 -22.8197 5
    endloop
  endfacet
  facet normal 0.97237 0.233445 0
    outer loop
      vertex 19.7538 -25.8713 5
      vertex 19.7538 -25.8713 -5
      vertex 19.0211 -22.8197 5
    endloop
  endfacet
  facet normal 0.92388 0.382683 0
    outer loop
      vertex 19.0211 -22.8197 -5
      vertex 17.8201 -19.9202 -5
      vertex 17.8201 -19.9202 5
    endloop
  endfacet
  facet normal 0.92388 0.382683 0
    outer loop
      vertex 19.0211 -22.8197 5
      vertex 19.0211 -22.8197 -5
      vertex 17.8201 -19.9202 5
    endloop
  endfacet
  facet normal 0.85264 0.522498 0
    outer loop
      vertex 17.8201 -19.9202 -5
      vertex 16.1803 -17.2443 -5
      vertex 16.1803 -17.2443 5
    endloop
  endfacet
  facet normal 0.85264 0.522498 0
    outer loop
      vertex 17.8201 -19.9202 5
      vertex 17.8201 -19.9202 -5
      vertex 16.1803 -17.2443 5
    endloop
  endfacet
  facet normal 0.760406 0.649448 0
    outer loop
      vertex 16.1803 -17.2443 -5
      vertex 14.1421 -14.8579 -5
      vertex 14.1421 -14.8579 5
    endloop
  endfacet
  facet normal 0.760406 0.649448 0
    outer loop
      vertex 16.1803 -17.2443 5
      vertex 16.1803 -17.2443 -5
      vertex 14.1421 -14.8579 5
    endloop
  endfacet
  facet normal 0.649448 0.760406 0
    outer loop
      vertex 11.7557 -12.8197 -5
      vertex 11.7557 -12.8197 5
      vertex 14.1421 -14.8579 -5
    endloop
  endfacet
  facet normal 0.649448 0.760406 0
    outer loop
      vertex 14.1421 -14.8579 -5
      vertex 11.7557 -12.8197 5
      vertex 14.1421 -14.8579 5
    endloop
  endfacet
  facet normal 0.522498 0.85264 0
    outer loop
      vertex 9.07981 -11.1799 -5
      vertex 9.07981 -11.1799 5
      vertex 11.7557 -12.8197 -5
    endloop
  endfacet
  facet normal 0.522498 0.85264 0
    outer loop
      vertex 11.7557 -12.8197 -5
      vertex 9.07981 -11.1799 5
      vertex 11.7557 -12.8197 5
    endloop
  endfacet
  facet normal 0.382683 0.92388 0
    outer loop
      vertex 6.18034 -9.97887 -5
      vertex 6.18034 -9.97887 5
      vertex 9.07981 -11.1799 -5
    endloop
  endfacet
  facet normal 0.382683 0.92388 0
    outer loop
      vertex 9.07981 -11.1799 -5
      vertex 6.18034 -9.97887 5
      vertex 9.07981 -11.1799 5
    endloop
  endfacet
  facet normal 0.233445 0.97237 0
    outer loop
      vertex 5 -9.6955 -5
      vertex 5 -9.6955 5
      vertex 6.18034 -9.97887 -5
    endloop
  endfacet
  facet normal 0.233445 0.97237 0
    outer loop
      vertex 6.18034 -9.97887 -5
      vertex 5 -9.6955 5
      vertex 6.18034 -9.97887 5
    endloop
  endfacet
  facet normal 1 0 0
    outer loop
      vertex 5 -6.88168 -1.21352
      vertex 5 -9.6955 -5
      vertex 5 -4.07921 -5
    endloop
  endfacet
  facet normal 1 0 0
    outer loop
      vertex 5 -4.5 1.11022e-15
      vertex 5 -4.57341 -0.463525
      vertex 5 -4.07921 -5
    endloop
  endfacet
  facet normal 1 0 0
    outer loop
      vertex 5 -9.6955 5
      vertex 5 -9.6955 -5
      vertex 5 -7.42658 -0.463525
    endloop
  endfacet
  facet normal 1 0 0
    outer loop
      vertex 5 -9.6955 5
      vertex 5 -7.42658 -0.463525
      vertex 5 -7.5 1.11022e-15
    endloop
  endfacet
  facet normal 1 0 0
    outer loop
      vertex 5 -4.57341 -0.463525
      vertex 5 -4.78647 -0.881678
      vertex 5 -4.07921 -5
    endloop
  endfacet
  facet normal 1 0 0
    outer loop
      vertex 5 -9.6955 5
      vertex 5 -7.5 1.11022e-15
      vertex 5 -7.42658 0.463525
    endloop
  endfacet
  facet normal 1 0 0
    outer loop
      vertex 5 -6 -1.5
      vertex 5 -6.46352 -1.42658
      vertex 5 -4.07921 -5
    endloop
  endfacet
  facet normal 1 0 0
    outer loop
      vertex 5 -4.07921 5
      vertex 5 -9.6955 5
      vertex 5 -7.21352 0.881678
    endloop
  endfacet
  facet normal 1 0 0
    outer loop
      vertex 5 -6.46352 -1.42658
      vertex 5 -6.88168 -1.21352
      vertex 5 -4.07921 -5
    endloop
  endfacet
  facet normal 1 0 0
    outer loop
      vertex 5 -4.07921 5
      vertex 5 -7.21352 0.881678
      vertex 5 -6.88168 1.21353
    endloop
  endfacet
  facet normal 1 0 0
    outer loop
      vertex 5 -4.07921 5
      vertex 5 -6.88168 1.21353
      vertex 5 -6.46352 1.42659
    endloop
  endfacet
  facet normal 1 0 0
    outer loop
      vertex 5 -5.53647 -1.42658
      vertex 5 -6 -1.5
      vertex 5 -4.07921 -5
    endloop
  endfacet
  facet normal 1 0 0
    outer loop
      vertex 5 -4.07921 5
      vertex 5 -6.46352 1.42659
      vertex 5 -6 1.5
    endloop
  endfacet
  facet normal 1 0 0
    outer loop
      vertex 5 -4.07921 5
      vertex 5 -6 1.5
      vertex 5 -5.53647 1.42659
    endloop
  endfacet
  facet normal 1 0 0
    outer loop
      vertex 5 -4.78647 -0.881678
      vertex 5 -5.11832 -1.21352
      vertex 5 -4.07921 -5
    endloop
  endfacet
  facet normal 1 0 0
    outer loop
      vertex 5 -4.07921 5
      vertex 5 -5.53647 1.42659
      vertex 5 -5.11832 1.21353
    endloop
  endfacet
  facet normal 1 0 0
    outer loop
      vertex 5 -5.11832 -1.21352
      vertex 5 -5.53647 -1.42658
      vertex 5 -4.07921 -5
    endloop
  endfacet
  facet normal 1 0 0
    outer loop
      vertex 5 -4.07921 5
      vertex 5 -5.11832 1.21353
      vertex 5 -4.78647 0.881678
    endloop
  endfacet
  facet normal 1 0 0
    outer loop
      vertex 5 -4.07921 5
      vertex 5 -4.78647 0.881678
      vertex 5 -4.57341 0.463525
    endloop
  endfacet
  facet normal 1 0 0
    outer loop
      vertex 5 -4.07921 5
      vertex 5 -4.5 1.11022e-15
      vertex 5 -4.07921 -5
    endloop
  endfacet
  facet normal 1 0 0
    outer loop
      vertex 5 -4.07921 5
      vertex 5 -4.57341 0.463525
      vertex 5 -4.5 1.11022e-15
    endloop
  endfacet
  facet normal 1 0 0
    outer loop
      vertex 5 -7.21352 -0.881678
      vertex 5 -9.6955 -5
      vertex 5 -6.88168 -1.21352
    endloop
  endfacet
  facet normal 1 0 0
    outer loop
      vertex 5 -7.42658 -0.463525
      vertex 5 -9.6955 -5
      vertex 5 -7.21352 -0.881678
    endloop
  endfacet
  facet normal 1 0 0
    outer loop
      vertex 5 -7.42658 0.463525
      vertex 5 -7.21352 0.881678
      vertex 5 -9.6955 5
    endloop
  endfacet
  facet normal 0.707107 -0.707107 0
    outer loop
      vertex 5 -4.07921 5
      vertex 5 -4.07921 -5
      vertex 5.25861 -3.8206 -5
    endloop
  endfacet
  facet normal 0.707107 -0.707107 0
    outer loop
      vertex 5.25861 -3.8206 5
      vertex 5 -4.07921 5
      vertex 5.25861 -3.8206 -5
    endloop
  endfacet
  facet normal 0.891007 -0.45399 0
    outer loop
      vertex 5.25861 -3.8206 5
      vertex 5.25861 -3.8206 -5
      vertex 6.18187 -2.00861 -5
    endloop
  endfacet
  facet normal 0.891007 -0.45399 0
    outer loop
      vertex 6.18187 -2.00861 5
      vertex 5.25861 -3.8206 5
      vertex 6.18187 -2.00861 -5
    endloop
  endfacet
  facet normal 0.987688 -0.156435 0
    outer loop
      vertex 6.18187 -2.00861 5
      vertex 6.18187 -2.00861 -5
      vertex 6.5 0 -5
    endloop
  endfacet
  facet normal 0.987688 -0.156435 0
    outer loop
      vertex 6.5 0 5
      vertex 6.18187 -2.00861 5
      vertex 6.5 0 -5
    endloop
  endfacet
  facet normal 0.987688 0.156435 0
    outer loop
      vertex 6.5 0 -5
      vertex 6.18187 2.00861 -5
      vertex 6.18187 2.00861 5
    endloop
  endfacet
  facet normal 0.987688 0.156435 0
    outer loop
      vertex 6.5 0 5
      vertex 6.5 0 -5
      vertex 6.18187 2.00861 5
    endloop
  endfacet
  facet normal 0.891007 0.45399 0
    outer loop
      vertex 6.18187 2.00861 -5
      vertex 5.25861 3.8206 -5
      vertex 5.25861 3.8206 5
    endloop
  endfacet
  facet normal 0.891007 0.45399 0
    outer loop
      vertex 6.18187 2.00861 5
      vertex 6.18187 2.00861 -5
      vertex 5.25861 3.8206 5
    endloop
  endfacet
  facet normal 0.707107 0.707107 0
    outer loop
      vertex 3.8206 5.25861 -5
      vertex 3.8206 5.25861 5
      vertex 5.25861 3.8206 -5
    endloop
  endfacet
  facet normal 0.707107 0.707107 0
    outer loop
      vertex 5.25861 3.8206 -5
      vertex 3.8206 5.25861 5
      vertex 5.25861 3.8206 5
    endloop
  endfacet
  facet normal 0.45399 0.891007 0
    outer loop
      vertex 2.00861 6.18187 -5
      vertex 2.00861 6.18187 5
      vertex 3.8206 5.25861 -5
    endloop
  endfacet
  facet normal 0.45399 0.891007 0
    outer loop
      vertex 3.8206 5.25861 -5
      vertex 2.00861 6.18187 5
      vertex 3.8206 5.25861 5
    endloop
  endfacet
  facet normal 0.156435 0.987688 0
    outer loop
      vertex 0 6.5 -5
      vertex 0 6.5 5
      vertex 2.00861 6.18187 -5
    endloop
  endfacet
  facet normal 0.156435 0.987688 0
    outer loop
      vertex 2.00861 6.18187 -5
      vertex 0 6.5 5
      vertex 2.00861 6.18187 5
    endloop
  endfacet
  facet normal -0.156435 0.987688 0
    outer loop
      vertex -2.00861 6.18187 -5
      vertex -2.00861 6.18187 5
      vertex 0 6.5 -5
    endloop
  endfacet
  facet normal -0.156435 0.987688 0
    outer loop
      vertex 0 6.5 -5
      vertex -2.00861 6.18187 5
      vertex 0 6.5 5
    endloop
  endfacet
  facet normal -0.45399 0.891007 0
    outer loop
      vertex -3.8206 5.25861 -5
      vertex -3.8206 5.25861 5
      vertex -2.00861 6.18187 -5
    endloop
  endfacet
  facet normal -0.45399 0.891007 0
    outer loop
      vertex -2.00861 6.18187 -5
      vertex -3.8206 5.25861 5
      vertex -2.00861 6.18187 5
    endloop
  endfacet
  facet normal -0.707107 0.707107 0
    outer loop
      vertex -5.25861 3.8206 -5
      vertex -5.25861 3.8206 5
      vertex -3.8206 5.25861 -5
    endloop
  endfacet
  facet normal -0.707107 0.707107 0
    outer loop
      vertex -3.8206 5.25861 -5
      vertex -5.25861 3.8206 5
      vertex -3.8206 5.25861 5
    endloop
  endfacet
  facet normal -0.891007 0.45399 0
    outer loop
      vertex -6.18187 2.00861 -5
      vertex -6.18187 2.00861 5
      vertex -5.25861 3.8206 -5
    endloop
  endfacet
  facet normal -0.891007 0.45399 0
    outer loop
      vertex -5.25861 3.8206 -5
      vertex -6.18187 2.00861 5
      vertex -5.25861 3.8206 5
    endloop
  endfacet
  facet normal -0.987688 0.156435 0
    outer loop
      vertex -6.5 0 -5
      vertex -6.5 0 5
      vertex -6.18187 2.00861 -5
    endloop
  endfacet
  facet normal -0.987688 0.156435 0
    outer loop
      vertex -6.18187 2.00861 -5
      vertex -6.5 0 5
      vertex -6.18187 2.00861 5
    endloop
  endfacet
  facet normal -0.987688 -0.156435 0
    outer loop
      vertex -6.5 0 -5
      vertex -6.18187 -2.00861 -5
      vertex -6.5 0 5
    endloop
  endfacet
  facet normal -0.987688 -0.156435 0
    outer loop
      vertex -6.5 0 5
      vertex -6.18187 -2.00861 -5
      vertex -6.18187 -2.00861 5
    endloop
  endfacet
  facet normal -0.891007 -0.45399 0
    outer loop
      vertex -6.18187 -2.00861 -5
      vertex -5.25861 -3.8206 -5
      vertex -6.18187 -2.00861 5
    endloop
  endfacet
  facet normal -0.891007 -0.45399 0
    outer loop
      vertex -6.18187 -2.00861 5
      vertex -5.25861 -3.8206 -5
      vertex -5.25861 -3.8206 5
    endloop
  endfacet
  facet normal -0.707107 -0.707107 0
    outer loop
      vertex -5.25861 -3.8206 5
      vertex -5.25861 -3.8206 -5
      vertex -5 -4.07921 -5
    endloop
  endfacet
  facet normal -0.707107 -0.707107 0
    outer loop
      vertex -5 -4.07921 5
      vertex -5.25861 -3.8206 5
      vertex -5 -4.07921 -5
    endloop
  endfacet
  facet normal -1 0 0
    outer loop
      vertex -5 -5.53647 1.42658
      vertex -5 -9.6955 5
      vertex -5 -4.07921 5
    endloop
  endfacet
  facet normal -1 0 0
    outer loop
      vertex -5 -9.6955 -5
      vertex -5 -9.6955 5
      vertex -5 -7.5 -1.11022e-15
    endloop
  endfacet
  facet normal -1 0 0
    outer loop
      vertex -5 -9.6955 -5
      vertex -5 -7.5 -1.11022e-15
      vertex -5 -7.42658 -0.463525
    endloop
  endfacet
  facet normal -1 0 0
    outer loop
      vertex -5 -9.6955 -5
      vertex -5 -7.42658 -0.463525
      vertex -5 -7.21352 -0.881678
    endloop
  endfacet
  facet normal -1 0 0
    outer loop
      vertex -5 -9.6955 -5
      vertex -5 -7.21352 -0.881678
      vertex -5 -4.07921 -5
    endloop
  endfacet
  facet normal -1 0 0
    outer loop
      vertex -5 -7.21352 -0.881678
      vertex -5 -6.88168 -1.21353
      vertex -5 -4.07921 -5
    endloop
  endfacet
  facet normal -1 0 0
    outer loop
      vertex -5 -6 -1.5
      vertex -5 -4.07921 -5
      vertex -5 -6.46352 -1.42659
    endloop
  endfacet
  facet normal -1 0 0
    outer loop
      vertex -5 -4.57341 0.463525
      vertex -5 -4.07921 5
      vertex -5 -4.5 -1.11022e-15
    endloop
  endfacet
  facet normal -1 0 0
    outer loop
      vertex -5 -4.07921 -5
      vertex -5 -6 -1.5
      vertex -5 -5.53647 -1.42659
    endloop
  endfacet
  facet normal -1 0 0
    outer loop
      vertex -5 -4.07921 -5
      vertex -5 -5.53647 -1.42659
      vertex -5 -5.11832 -1.21353
    endloop
  endfacet
  facet normal -1 0 0
    outer loop
      vertex -5 -4.07921 -5
      vertex -5 -5.11832 -1.21353
      vertex -5 -4.78647 -0.881678
    endloop
  endfacet
  facet normal -1 0 0
    outer loop
      vertex -5 -4.07921 -5
      vertex -5 -4.78647 -0.881678
      vertex -5 -4.57341 -0.463525
    endloop
  endfacet
  facet normal -1 0 0
    outer loop
      vertex -5 -4.07921 -5
      vertex -5 -4.57341 -0.463525
      vertex -5 -4.5 -1.11022e-15
    endloop
  endfacet
  facet normal -1 0 0
    outer loop
      vertex -5 -4.07921 -5
      vertex -5 -4.5 -1.11022e-15
      vertex -5 -4.07921 5
    endloop
  endfacet
  facet normal -1 0 0
    outer loop
      vertex -5 -4.78647 0.881678
      vertex -5 -4.07921 5
      vertex -5 -4.57341 0.463525
    endloop
  endfacet
  facet normal -1 0 0
    outer loop
      vertex -5 -5.11832 1.21352
      vertex -5 -4.07921 5
      vertex -5 -4.78647 0.881678
    endloop
  endfacet
  facet normal -1 0 0
    outer loop
      vertex -5 -5.53647 1.42658
      vertex -5 -4.07921 5
      vertex -5 -5.11832 1.21352
    endloop
  endfacet
  facet normal -1 0 0
    outer loop
      vertex -5 -6 1.5
      vertex -5 -9.6955 5
      vertex -5 -5.53647 1.42658
    endloop
  endfacet
  facet normal -1 0 0
    outer loop
      vertex -5 -7.42658 0.463525
      vertex -5 -9.6955 5
      vertex -5 -7.21352 0.881678
    endloop
  endfacet
  facet normal -1 0 0
    outer loop
      vertex -5 -6.46352 1.42658
      vertex -5 -9.6955 5
      vertex -5 -6 1.5
    endloop
  endfacet
  facet normal -1 0 0
    outer loop
      vertex -5 -6.88168 1.21352
      vertex -5 -9.6955 5
      vertex -5 -6.46352 1.42658
    endloop
  endfacet
  facet normal -1 0 0
    outer loop
      vertex -5 -7.21352 0.881678
      vertex -5 -9.6955 5
      vertex -5 -6.88168 1.21352
    endloop
  endfacet
  facet normal -1 0 0
    outer loop
      vertex -5 -7.5 -1.11022e-15
      vertex -5 -9.6955 5
      vertex -5 -7.42658 0.463525
    endloop
  endfacet
  facet normal -1 0 0
    outer loop
      vertex -5 -6.46352 -1.42659
      vertex -5 -4.07921 -5
      vertex -5 -6.88168 -1.21353
    endloop
  endfacet
  facet normal -0.233445 0.97237 0
    outer loop
      vertex -6.18034 -9.97887 -5
      vertex -6.18034 -9.97887 5
      vertex -5 -9.6955 -5
    endloop
  endfacet
  facet normal -0.233445 0.97237 0
    outer loop
      vertex -5 -9.6955 -5
      vertex -6.18034 -9.97887 5
      vertex -5 -9.6955 5
    endloop
  endfacet
  facet normal -0.382683 0.92388 0
    outer loop
      vertex -9.07981 -11.1799 -5
      vertex -9.07981 -11.1799 5
      vertex -6.18034 -9.97887 -5
    endloop
  endfacet
  facet normal -0.382683 0.92388 0
    outer loop
      vertex -6.18034 -9.97887 -5
      vertex -9.07981 -11.1799 5
      vertex -6.18034 -9.97887 5
    endloop
  endfacet
  facet normal -0.522498 0.85264 0
    outer loop
      vertex -11.7557 -12.8197 -5
      vertex -11.7557 -12.8197 5
      vertex -9.07981 -11.1799 -5
    endloop
  endfacet
  facet normal -0.522498 0.85264 0
    outer loop
      vertex -9.07981 -11.1799 -5
      vertex -11.7557 -12.8197 5
      vertex -9.07981 -11.1799 5
    endloop
  endfacet
  facet normal -0.649448 0.760406 0
    outer loop
      vertex -14.1421 -14.8579 -5
      vertex -14.1421 -14.8579 5
      vertex -11.7557 -12.8197 -5
    endloop
  endfacet
  facet normal -0.649448 0.760406 0
    outer loop
      vertex -11.7557 -12.8197 -5
      vertex -14.1421 -14.8579 5
      vertex -11.7557 -12.8197 5
    endloop
  endfacet
  facet normal -0.760406 0.649448 0
    outer loop
      vertex -16.1803 -17.2443 -5
      vertex -16.1803 -17.2443 5
      vertex -14.1421 -14.8579 -5
    endloop
  endfacet
  facet normal -0.760406 0.649448 0
    outer loop
      vertex -14.1421 -14.8579 -5
      vertex -16.1803 -17.2443 5
      vertex -14.1421 -14.8579 5
    endloop
  endfacet
  facet normal -0.85264 0.522498 0
    outer loop
      vertex -17.8201 -19.9202 -5
      vertex -17.8201 -19.9202 5
      vertex -16.1803 -17.2443 -5
    endloop
  endfacet
  facet normal -0.85264 0.522498 0
    outer loop
      vertex -16.1803 -17.2443 -5
      vertex -17.8201 -19.9202 5
      vertex -16.1803 -17.2443 5
    endloop
  endfacet
  facet normal -0.92388 0.382683 0
    outer loop
      vertex -19.0211 -22.8197 -5
      vertex -19.0211 -22.8197 5
      vertex -17.8201 -19.9202 -5
    endloop
  endfacet
  facet normal -0.92388 0.382683 0
    outer loop
      vertex -17.8201 -19.9202 -5
      vertex -19.0211 -22.8197 5
      vertex -17.8201 -19.9202 5
    endloop
  endfacet
  facet normal -0.97237 0.233445 0
    outer loop
      vertex -19.7538 -25.8713 -5
      vertex -19.7538 -25.8713 5
      vertex -19.0211 -22.8197 -5
    endloop
  endfacet
  facet normal -0.97237 0.233445 0
    outer loop
      vertex -19.0211 -22.8197 -5
      vertex -19.7538 -25.8713 5
      vertex -19.0211 -22.8197 5
    endloop
  endfacet
  facet normal -0.996917 0.078459 0
    outer loop
      vertex -19.8819 -27.5 -5
      vertex -19.8819 -27.5 5
      vertex -19.7538 -25.8713 -5
    endloop
  endfacet
  facet normal -0.996917 0.078459 0
    outer loop
      vertex -19.7538 -25.8713 -5
      vertex -19.8819 -27.5 5
      vertex -19.7538 -25.8713 5
    endloop
  endfacet
  facet normal 0.97237 -0.233445 0
    outer loop
      vertex -16.168 -23.7467 -5
      vertex -16.168 -23.7467 5
      vertex -16.7907 -26.3406 5
    endloop
  endfacet
  facet normal 0.97237 -0.233445 0
    outer loop
      vertex -16.7907 -26.3406 -5
      vertex -16.168 -23.7467 -5
      vertex -16.7907 -26.3406 5
    endloop
  endfacet
  facet normal 0.996917 -0.078459 0
    outer loop
      vertex -16.7907 -26.3406 -5
      vertex -16.7907 -26.3406 5
      vertex -16.8819 -27.5 5
    endloop
  endfacet
  facet normal 0.996917 -0.078459 0
    outer loop
      vertex -16.8819 -27.5 -5
      vertex -16.7907 -26.3406 -5
      vertex -16.8819 -27.5 5
    endloop
  endfacet
  facet normal 0.92388 -0.382683 0
    outer loop
      vertex -15.1471 -21.2822 -5
      vertex -15.1471 -21.2822 5
      vertex -16.168 -23.7467 5
    endloop
  endfacet
  facet normal 0.92388 -0.382683 0
    outer loop
      vertex -16.168 -23.7467 -5
      vertex -15.1471 -21.2822 -5
      vertex -16.168 -23.7467 5
    endloop
  endfacet
  facet normal 0.85264 -0.522498 0
    outer loop
      vertex -13.7533 -19.0077 -5
      vertex -13.7533 -19.0077 5
      vertex -15.1471 -21.2822 5
    endloop
  endfacet
  facet normal 0.85264 -0.522498 0
    outer loop
      vertex -15.1471 -21.2822 -5
      vertex -13.7533 -19.0077 -5
      vertex -15.1471 -21.2822 5
    endloop
  endfacet
  facet normal 0.760406 -0.649448 0
    outer loop
      vertex -12.0208 -16.9792 -5
      vertex -12.0208 -16.9792 5
      vertex -13.7533 -19.0077 5
    endloop
  endfacet
  facet normal 0.760406 -0.649448 0
    outer loop
      vertex -13.7533 -19.0077 -5
      vertex -12.0208 -16.9792 -5
      vertex -13.7533 -19.0077 5
    endloop
  endfacet
  facet normal 0.649448 -0.760406 0
    outer loop
      vertex -9.99235 -15.2467 -5
      vertex -9.99235 -15.2467 5
      vertex -12.0208 -16.9792 5
    endloop
  endfacet
  facet normal 0.649448 -0.760406 0
    outer loop
      vertex -12.0208 -16.9792 -5
      vertex -9.99235 -15.2467 -5
      vertex -12.0208 -16.9792 5
    endloop
  endfacet
  facet normal 0.522498 -0.85264 0
    outer loop
      vertex -7.71784 -13.8529 -5
      vertex -7.71784 -13.8529 5
      vertex -9.99235 -15.2467 5
    endloop
  endfacet
  facet normal 0.522498 -0.85264 0
    outer loop
      vertex -9.99235 -15.2467 -5
      vertex -7.71784 -13.8529 -5
      vertex -9.99235 -15.2467 5
    endloop
  endfacet
  facet normal 0.382683 -0.92388 0
    outer loop
      vertex -5.25329 -12.832 -5
      vertex -5.25329 -12.832 5
      vertex -7.71784 -13.8529 5
    endloop
  endfacet
  facet normal 0.382683 -0.92388 0
    outer loop
      vertex -7.71784 -13.8529 -5
      vertex -5.25329 -12.832 -5
      vertex -7.71784 -13.8529 5
    endloop
  endfacet
  facet normal 0.233445 -0.97237 0
    outer loop
      vertex -2.65939 -12.2093 -5
      vertex -2.65939 -12.2093 5
      vertex -5.25329 -12.832 5
    endloop
  endfacet
  facet normal 0.233445 -0.97237 0
    outer loop
      vertex -5.25329 -12.832 -5
      vertex -2.65939 -12.2093 -5
      vertex -5.25329 -12.832 5
    endloop
  endfacet
  facet normal 0.078459 -0.996917 0
    outer loop
      vertex -1.5 -12.1181 -5
      vertex -1.5 -12.1181 5
      vertex -2.65939 -12.2093 5
    endloop
  endfacet
  facet normal 0.078459 -0.996917 0
    outer loop
      vertex -2.65939 -12.2093 -5
      vertex -1.5 -12.1181 -5
      vertex -2.65939 -12.2093 5
    endloop
  endfacet
  facet normal 1 0 0
    outer loop
      vertex -1.5 -7.21352 0.881678
      vertex -1.5 -3.72517 5
      vertex -1.5 -12.1181 5
    endloop
  endfacet
  facet normal 1 0 0
    outer loop
      vertex -1.5 -7.5 -3.33067e-16
      vertex -1.5 -7.42658 0.463525
      vertex -1.5 -12.1181 5
    endloop
  endfacet
  facet normal 1 0 0
    outer loop
      vertex -1.5 -7.42658 0.463525
      vertex -1.5 -7.21352 0.881678
      vertex -1.5 -12.1181 5
    endloop
  endfacet
  facet normal 1 0 0
    outer loop
      vertex -1.5 -6.88168 1.21352
      vertex -1.5 -3.72517 5
      vertex -1.5 -7.21352 0.881678
    endloop
  endfacet
  facet normal 1 0 0
    outer loop
      vertex -1.5 -6.46352 1.42658
      vertex -1.5 -6 1.5
      vertex -1.5 -3.72517 5
    endloop
  endfacet
  facet normal 1 0 0
    outer loop
      vertex -1.5 -5.53647 1.42658
      vertex -1.5 -3.72517 5
      vertex -1.5 -6 1.5
    endloop
  endfacet
  facet normal 1 0 0
    outer loop
      vertex -1.5 -6 -1.5
      vertex -1.5 -6.46352 -1.42659
      vertex -1.5 -3.72517 -5
    endloop
  endfacet
  facet normal 1 0 0
    outer loop
      vertex -1.5 -5.11832 1.21352
      vertex -1.5 -3.72517 5
      vertex -1.5 -5.53647 1.42658
    endloop
  endfacet
  facet normal 1 0 0
    outer loop
      vertex -1.5 -4.78647 0.881678
      vertex -1.5 -3.72517 5
      vertex -1.5 -5.11832 1.21352
    endloop
  endfacet
  facet normal 1 0 0
    outer loop
      vertex -1.5 -4.57341 0.463525
      vertex -1.5 -3.72517 5
      vertex -1.5 -4.78647 0.881678
    endloop
  endfacet
  facet normal 1 0 0
    outer loop
      vertex -1.5 -4.57341 -0.463525
      vertex -1.5 -4.78647 -0.881678
      vertex -1.5 -3.72517 -5
    endloop
  endfacet
  facet normal 1 0 0
    outer loop
      vertex -1.5 -4.5 -3.33067e-16
      vertex -1.5 -3.72517 5
      vertex -1.5 -4.57341 0.463525
    endloop
  endfacet
  facet normal 1 0 0
    outer loop
      vertex -1.5 -4.78647 -0.881678
      vertex -1.5 -5.11832 -1.21353
      vertex -1.5 -3.72517 -5
    endloop
  endfacet
  facet normal 1 0 0
    outer loop
      vertex -1.5 -3.72517 -5
      vertex -1.5 -3.72517 5
      vertex -1.5 -4.5 -3.33067e-16
    endloop
  endfacet
  facet normal 1 0 0
    outer loop
      vertex -1.5 -3.72517 -5
      vertex -1.5 -5.11832 -1.21353
      vertex -1.5 -5.53647 -1.42659
    endloop
  endfacet
  facet normal 1 0 0
    outer loop
      vertex -1.5 -6.88168 -1.21353
      vertex -1.5 -7.21352 -0.881678
      vertex -1.5 -3.72517 -5
    endloop
  endfacet
  facet normal 1 0 0
    outer loop
      vertex -1.5 -3.72517 -5
      vertex -1.5 -5.53647 -1.42659
      vertex -1.5 -6 -1.5
    endloop
  endfacet
  facet normal 1 0 0
    outer loop
      vertex -1.5 -6.88168 1.21352
      vertex -1.5 -6.46352 1.42658
      vertex -1.5 -3.72517 5
    endloop
  endfacet
  facet normal 1 0 0
    outer loop
      vertex -1.5 -7.21352 -0.881678
      vertex -1.5 -7.42658 -0.463525
      vertex -1.5 -12.1181 5
    endloop
  endfacet
  facet normal 1 0 0
    outer loop
      vertex -1.5 -3.72517 -5
      vertex -1.5 -6.46352 -1.42659
      vertex -1.5 -6.88168 -1.21353
    endloop
  endfacet
  facet normal 1 0 0
    outer loop
      vertex -1.5 -12.1181 -5
      vertex -1.5 -7.21352 -0.881678
      vertex -1.5 -12.1181 5
    endloop
  endfacet
  facet normal 1 0 0
    outer loop
      vertex -1.5 -12.1181 -5
      vertex -1.5 -3.72517 -5
      vertex -1.5 -7.21352 -0.881678
    endloop
  endfacet
  facet normal 1 0 0
    outer loop
      vertex -1.5 -7.42658 -0.463525
      vertex -1.5 -7.5 -3.33067e-16
      vertex -1.5 -12.1181 5
    endloop
  endfacet
  facet normal 1 0 0
    outer loop
      vertex -1.5 -4.5 -3.33067e-16
      vertex -1.5 -4.57341 -0.463525
      vertex -1.5 -3.72517 -5
    endloop
  endfacet
  facet normal 0.453991 0.891006 0
    outer loop
      vertex -1.5 -3.72517 5
      vertex -1.5 -3.72517 -5
      vertex -2.38053 -3.27652 5
    endloop
  endfacet
  facet normal 0.453991 0.891006 0
    outer loop
      vertex -2.38053 -3.27652 5
      vertex -1.5 -3.72517 -5
      vertex -2.38053 -3.27652 -5
    endloop
  endfacet
  facet normal 0.707107 0.707107 0
    outer loop
      vertex -2.38053 -3.27652 5
      vertex -2.38053 -3.27652 -5
      vertex -3.27652 -2.38053 5
    endloop
  endfacet
  facet normal 0.707107 0.707107 0
    outer loop
      vertex -3.27652 -2.38053 5
      vertex -2.38053 -3.27652 -5
      vertex -3.27652 -2.38053 -5
    endloop
  endfacet
  facet normal 0.891006 0.453991 0
    outer loop
      vertex -3.85178 -1.25152 5
      vertex -3.27652 -2.38053 5
      vertex -3.27652 -2.38053 -5
    endloop
  endfacet
  facet normal 0.891006 0.453991 0
    outer loop
      vertex -3.85178 -1.25152 -5
      vertex -3.85178 -1.25152 5
      vertex -3.27652 -2.38053 -5
    endloop
  endfacet
  facet normal 0.987688 0.156434 0
    outer loop
      vertex -4.05 0 5
      vertex -3.85178 -1.25152 5
      vertex -3.85178 -1.25152 -5
    endloop
  endfacet
  facet normal 0.987688 0.156434 0
    outer loop
      vertex -4.05 0 -5
      vertex -4.05 0 5
      vertex -3.85178 -1.25152 -5
    endloop
  endfacet
  facet normal 0.987688 -0.156434 0
    outer loop
      vertex -3.85178 1.25152 -5
      vertex -3.85178 1.25152 5
      vertex -4.05 0 5
    endloop
  endfacet
  facet normal 0.987688 -0.156434 0
    outer loop
      vertex -4.05 0 -5
      vertex -3.85178 1.25152 -5
      vertex -4.05 0 5
    endloop
  endfacet
  facet normal 0.891006 -0.453991 0
    outer loop
      vertex -3.27652 2.38053 -5
      vertex -3.27652 2.38053 5
      vertex -3.85178 1.25152 5
    endloop
  endfacet
  facet normal 0.891006 -0.453991 0
    outer loop
      vertex -3.85178 1.25152 -5
      vertex -3.27652 2.38053 -5
      vertex -3.85178 1.25152 5
    endloop
  endfacet
  facet normal 0.707107 -0.707107 0
    outer loop
      vertex -2.38053 3.27652 -5
      vertex -2.38053 3.27652 5
      vertex -3.27652 2.38053 5
    endloop
  endfacet
  facet normal 0.707107 -0.707107 0
    outer loop
      vertex -3.27652 2.38053 -5
      vertex -2.38053 3.27652 -5
      vertex -3.27652 2.38053 5
    endloop
  endfacet
  facet normal 0.453991 -0.891006 0
    outer loop
      vertex -1.25152 3.85178 -5
      vertex -1.25152 3.85178 5
      vertex -2.38053 3.27652 5
    endloop
  endfacet
  facet normal 0.453991 -0.891006 0
    outer loop
      vertex -2.38053 3.27652 -5
      vertex -1.25152 3.85178 -5
      vertex -2.38053 3.27652 5
    endloop
  endfacet
  facet normal 0.156434 -0.987688 0
    outer loop
      vertex 0 4.05 -5
      vertex 0 4.05 5
      vertex -1.25152 3.85178 5
    endloop
  endfacet
  facet normal 0.156434 -0.987688 0
    outer loop
      vertex -1.25152 3.85178 -5
      vertex 0 4.05 -5
      vertex -1.25152 3.85178 5
    endloop
  endfacet
  facet normal -0.156434 -0.987688 0
    outer loop
      vertex 1.25152 3.85178 -5
      vertex 1.25152 3.85178 5
      vertex 0 4.05 5
    endloop
  endfacet
  facet normal -0.156434 -0.987688 0
    outer loop
      vertex 0 4.05 -5
      vertex 1.25152 3.85178 -5
      vertex 0 4.05 5
    endloop
  endfacet
  facet normal -0.453991 -0.891006 0
    outer loop
      vertex 2.38053 3.27652 -5
      vertex 2.38053 3.27652 5
      vertex 1.25152 3.85178 5
    endloop
  endfacet
  facet normal -0.453991 -0.891006 0
    outer loop
      vertex 1.25152 3.85178 -5
      vertex 2.38053 3.27652 -5
      vertex 1.25152 3.85178 5
    endloop
  endfacet
  facet normal -0.707107 -0.707107 0
    outer loop
      vertex 3.27652 2.38053 -5
      vertex 3.27652 2.38053 5
      vertex 2.38053 3.27652 5
    endloop
  endfacet
  facet normal -0.707107 -0.707107 0
    outer loop
      vertex 2.38053 3.27652 -5
      vertex 3.27652 2.38053 -5
      vertex 2.38053 3.27652 5
    endloop
  endfacet
  facet normal -0.891006 -0.453991 0
    outer loop
      vertex 3.85178 1.25152 5
      vertex 3.27652 2.38053 5
      vertex 3.85178 1.25152 -5
    endloop
  endfacet
  facet normal -0.891006 -0.453991 0
    outer loop
      vertex 3.85178 1.25152 -5
      vertex 3.27652 2.38053 5
      vertex 3.27652 2.38053 -5
    endloop
  endfacet
  facet normal -0.987688 -0.156434 0
    outer loop
      vertex 4.05 0 5
      vertex 3.85178 1.25152 5
      vertex 4.05 0 -5
    endloop
  endfacet
  facet normal -0.987688 -0.156434 0
    outer loop
      vertex 4.05 0 -5
      vertex 3.85178 1.25152 5
      vertex 3.85178 1.25152 -5
    endloop
  endfacet
  facet normal -0.987688 0.156434 0
    outer loop
      vertex 4.05 0 5
      vertex 4.05 0 -5
      vertex 3.85178 -1.25152 5
    endloop
  endfacet
  facet normal -0.987688 0.156434 0
    outer loop
      vertex 3.85178 -1.25152 5
      vertex 4.05 0 -5
      vertex 3.85178 -1.25152 -5
    endloop
  endfacet
  facet normal -0.891006 0.453991 0
    outer loop
      vertex 3.85178 -1.25152 5
      vertex 3.85178 -1.25152 -5
      vertex 3.27652 -2.38053 5
    endloop
  endfacet
  facet normal -0.891006 0.453991 0
    outer loop
      vertex 3.27652 -2.38053 5
      vertex 3.85178 -1.25152 -5
      vertex 3.27652 -2.38053 -5
    endloop
  endfacet
  facet normal -0.707107 0.707107 0
    outer loop
      vertex 3.27652 -2.38053 5
      vertex 3.27652 -2.38053 -5
      vertex 2.38053 -3.27652 5
    endloop
  endfacet
  facet normal -0.707107 0.707107 0
    outer loop
      vertex 2.38053 -3.27652 5
      vertex 3.27652 -2.38053 -5
      vertex 2.38053 -3.27652 -5
    endloop
  endfacet
  facet normal -0.453991 0.891006 0
    outer loop
      vertex 2.38053 -3.27652 5
      vertex 2.38053 -3.27652 -5
      vertex 1.5 -3.72517 5
    endloop
  endfacet
  facet normal -0.453991 0.891006 0
    outer loop
      vertex 1.5 -3.72517 5
      vertex 2.38053 -3.27652 -5
      vertex 1.5 -3.72517 -5
    endloop
  endfacet
  facet normal -1 0 0
    outer loop
      vertex 1.5 -7.21352 -0.881678
      vertex 1.5 -3.72517 -5
      vertex 1.5 -12.1181 -5
    endloop
  endfacet
  facet normal -1 0 0
    outer loop
      vertex 1.5 -4.57341 0.463525
      vertex 1.5 -3.72517 5
      vertex 1.5 -4.5 3.33067e-16
    endloop
  endfacet
  facet normal -1 0 0
    outer loop
      vertex 1.5 -7.5 3.33067e-16
      vertex 1.5 -7.42658 -0.463525
      vertex 1.5 -12.1181 5
    endloop
  endfacet
  facet normal -1 0 0
    outer loop
      vertex 1.5 -6.46352 -1.42658
      vertex 1.5 -3.72517 -5
      vertex 1.5 -6.88168 -1.21352
    endloop
  endfacet
  facet normal -1 0 0
    outer loop
      vertex 1.5 -12.1181 5
      vertex 1.5 -7.21352 -0.881678
      vertex 1.5 -12.1181 -5
    endloop
  endfacet
  facet normal -1 0 0
    outer loop
      vertex 1.5 -6 -1.5
      vertex 1.5 -3.72517 -5
      vertex 1.5 -6.46352 -1.42658
    endloop
  endfacet
  facet normal -1 0 0
    outer loop
      vertex 1.5 -5.53647 -1.42658
      vertex 1.5 -3.72517 -5
      vertex 1.5 -6 -1.5
    endloop
  endfacet
  facet normal -1 0 0
    outer loop
      vertex 1.5 -5.11832 -1.21352
      vertex 1.5 -3.72517 -5
      vertex 1.5 -5.53647 -1.42658
    endloop
  endfacet
  facet normal -1 0 0
    outer loop
      vertex 1.5 -4.78647 -0.881678
      vertex 1.5 -3.72517 -5
      vertex 1.5 -5.11832 -1.21352
    endloop
  endfacet
  facet normal -1 0 0
    outer loop
      vertex 1.5 -4.57341 -0.463525
      vertex 1.5 -3.72517 -5
      vertex 1.5 -4.78647 -0.881678
    endloop
  endfacet
  facet normal -1 0 0
    outer loop
      vertex 1.5 -4.5 3.33067e-16
      vertex 1.5 -3.72517 -5
      vertex 1.5 -4.57341 -0.463525
    endloop
  endfacet
  facet normal -1 0 0
    outer loop
      vertex 1.5 -3.72517 5
      vertex 1.5 -3.72517 -5
      vertex 1.5 -4.5 3.33067e-16
    endloop
  endfacet
  facet normal -1 0 0
    outer loop
      vertex 1.5 -4.78647 0.881678
      vertex 1.5 -3.72517 5
      vertex 1.5 -4.57341 0.463525
    endloop
  endfacet
  facet normal -1 0 0
    outer loop
      vertex 1.5 -5.11832 1.21353
      vertex 1.5 -3.72517 5
      vertex 1.5 -4.78647 0.881678
    endloop
  endfacet
  facet normal -1 0 0
    outer loop
      vertex 1.5 -5.53647 1.42659
      vertex 1.5 -3.72517 5
      vertex 1.5 -5.11832 1.21353
    endloop
  endfacet
  facet normal -1 0 0
    outer loop
      vertex 1.5 -6.46352 1.42659
      vertex 1.5 -3.72517 5
      vertex 1.5 -6 1.5
    endloop
  endfacet
  facet normal -1 0 0
    outer loop
      vertex 1.5 -3.72517 5
      vertex 1.5 -5.53647 1.42659
      vertex 1.5 -6 1.5
    endloop
  endfacet
  facet normal -1 0 0
    outer loop
      vertex 1.5 -3.72517 5
      vertex 1.5 -6.46352 1.42659
      vertex 1.5 -12.1181 5
    endloop
  endfacet
  facet normal -1 0 0
    outer loop
      vertex 1.5 -6.46352 1.42659
      vertex 1.5 -6.88168 1.21353
      vertex 1.5 -12.1181 5
    endloop
  endfacet
  facet normal -1 0 0
    outer loop
      vertex 1.5 -6.88168 1.21353
      vertex 1.5 -7.21352 0.881678
      vertex 1.5 -12.1181 5
    endloop
  endfacet
  facet normal -1 0 0
    outer loop
      vertex 1.5 -7.21352 0.881678
      vertex 1.5 -7.42658 0.463525
      vertex 1.5 -12.1181 5
    endloop
  endfacet
  facet normal -1 0 0
    outer loop
      vertex 1.5 -7.42658 0.463525
      vertex 1.5 -7.5 3.33067e-16
      vertex 1.5 -12.1181 5
    endloop
  endfacet
  facet normal -1 0 0
    outer loop
      vertex 1.5 -7.21352 -0.881678
      vertex 1.5 -12.1181 5
      vertex 1.5 -7.42658 -0.463525
    endloop
  endfacet
  facet normal -1 0 0
    outer loop
      vertex 1.5 -6.88168 -1.21352
      vertex 1.5 -3.72517 -5
      vertex 1.5 -7.21352 -0.881678
    endloop
  endfacet
  facet normal -0.078459 -0.996917 0
    outer loop
      vertex 2.65939 -12.2093 -5
      vertex 2.65939 -12.2093 5
      vertex 1.5 -12.1181 5
    endloop
  endfacet
  facet normal -0.078459 -0.996917 0
    outer loop
      vertex 1.5 -12.1181 -5
      vertex 2.65939 -12.2093 -5
      vertex 1.5 -12.1181 5
    endloop
  endfacet
  facet normal -0.233445 -0.97237 0
    outer loop
      vertex 5.25329 -12.832 -5
      vertex 5.25329 -12.832 5
      vertex 2.65939 -12.2093 5
    endloop
  endfacet
  facet normal -0.233445 -0.97237 0
    outer loop
      vertex 2.65939 -12.2093 -5
      vertex 5.25329 -12.832 -5
      vertex 2.65939 -12.2093 5
    endloop
  endfacet
  facet normal -0.382683 -0.92388 0
    outer loop
      vertex 7.71784 -13.8529 -5
      vertex 7.71784 -13.8529 5
      vertex 5.25329 -12.832 5
    endloop
  endfacet
  facet normal -0.382683 -0.92388 0
    outer loop
      vertex 5.25329 -12.832 -5
      vertex 7.71784 -13.8529 -5
      vertex 5.25329 -12.832 5
    endloop
  endfacet
  facet normal -0.522498 -0.85264 0
    outer loop
      vertex 9.99235 -15.2467 -5
      vertex 9.99235 -15.2467 5
      vertex 7.71784 -13.8529 5
    endloop
  endfacet
  facet normal -0.522498 -0.85264 0
    outer loop
      vertex 7.71784 -13.8529 -5
      vertex 9.99235 -15.2467 -5
      vertex 7.71784 -13.8529 5
    endloop
  endfacet
  facet normal -0.649448 -0.760406 0
    outer loop
      vertex 12.0208 -16.9792 -5
      vertex 12.0208 -16.9792 5
      vertex 9.99235 -15.2467 5
    endloop
  endfacet
  facet normal -0.649448 -0.760406 0
    outer loop
      vertex 9.99235 -15.2467 -5
      vertex 12.0208 -16.9792 -5
      vertex 9.99235 -15.2467 5
    endloop
  endfacet
  facet normal -0.760406 -0.649448 0
    outer loop
      vertex 13.7533 -19.0077 5
      vertex 12.0208 -16.9792 5
      vertex 13.7533 -19.0077 -5
    endloop
  endfacet
  facet normal -0.760406 -0.649448 0
    outer loop
      vertex 13.7533 -19.0077 -5
      vertex 12.0208 -16.9792 5
      vertex 12.0208 -16.9792 -5
    endloop
  endfacet
  facet normal -0.85264 -0.522498 0
    outer loop
      vertex 15.1471 -21.2822 5
      vertex 13.7533 -19.0077 5
      vertex 15.1471 -21.2822 -5
    endloop
  endfacet
  facet normal -0.85264 -0.522498 0
    outer loop
      vertex 15.1471 -21.2822 -5
      vertex 13.7533 -19.0077 5
      vertex 13.7533 -19.0077 -5
    endloop
  endfacet
  facet normal -0.92388 -0.382683 0
    outer loop
      vertex 16.168 -23.7467 5
      vertex 15.1471 -21.2822 5
      vertex 16.168 -23.7467 -5
    endloop
  endfacet
  facet normal -0.92388 -0.382683 0
    outer loop
      vertex 16.168 -23.7467 -5
      vertex 15.1471 -21.2822 5
      vertex 15.1471 -21.2822 -5
    endloop
  endfacet
  facet normal -0.97237 -0.233445 0
    outer loop
      vertex 16.7907 -26.3406 5
      vertex 16.168 -23.7467 5
      vertex 16.7907 -26.3406 -5
    endloop
  endfacet
  facet normal -0.97237 -0.233445 0
    outer loop
      vertex 16.7907 -26.3406 -5
      vertex 16.168 -23.7467 5
      vertex 16.168 -23.7467 -5
    endloop
  endfacet
  facet normal -0.996917 -0.078459 0
    outer loop
      vertex 16.8819 -27.5 5
      vertex 16.7907 -26.3406 5
      vertex 16.8819 -27.5 -5
    endloop
  endfacet
  facet normal -0.996917 -0.078459 0
    outer loop
      vertex 16.8819 -27.5 -5
      vertex 16.7907 -26.3406 5
      vertex 16.7907 -26.3406 -5
    endloop
  endfacet
  facet normal 0 1 0
    outer loop
      vertex 0.463525 -27.5 1.42658
      vertex -16.8819 -27.5 5
      vertex 16.8819 -27.5 5
    endloop
  endfacet
  facet normal 0 1 0
    outer loop
      vertex -16.8819 -27.5 -5
      vertex -16.8819 -27.5 5
      vertex -1.5 -27.5 -5.55112e-16
    endloop
  endfacet
  facet normal 0 1 0
    outer loop
      vertex -16.8819 -27.5 -5
      vertex -1.5 -27.5 -5.55112e-16
      vertex -1.42658 -27.5 -0.463525
    endloop
  endfacet
  facet normal 0 1 0
    outer loop
      vertex -16.8819 -27.5 -5
      vertex -1.42658 -27.5 -0.463525
      vertex -1.21352 -27.5 -0.881678
    endloop
  endfacet
  facet normal 0 1 0
    outer loop
      vertex -16.8819 -27.5 -5
      vertex -1.21352 -27.5 -0.881678
      vertex -0.881678 -27.5 -1.21353
    endloop
  endfacet
  facet normal 0 1 0
    outer loop
      vertex -16.8819 -27.5 -5
      vertex -0.881678 -27.5 -1.21353
      vertex -0.463525 -27.5 -1.42659
    endloop
  endfacet
  facet normal 0 1 0
    outer loop
      vertex -16.8819 -27.5 -5
      vertex -0.463525 -27.5 -1.42659
      vertex 16.8819 -27.5 -5
    endloop
  endfacet
  facet normal 0 1 0
    outer loop
      vertex -0.463525 -27.5 -1.42659
      vertex 0 -27.5 -1.5
      vertex 16.8819 -27.5 -5
    endloop
  endfacet
  facet normal 0 1 0
    outer loop
      vertex 0.881678 -27.5 -1.21353
      vertex 16.8819 -27.5 -5
      vertex 0.463525 -27.5 -1.42659
    endloop
  endfacet
  facet normal 0 1 0
    outer loop
      vertex 1.21352 -27.5 -0.881678
      vertex 16.8819 -27.5 -5
      vertex 0.881678 -27.5 -1.21353
    endloop
  endfacet
  facet normal 0 1 0
    outer loop
      vertex 1.42658 -27.5 -0.463525
      vertex 16.8819 -27.5 -5
      vertex 1.21352 -27.5 -0.881678
    endloop
  endfacet
  facet normal 0 1 0
    outer loop
      vertex 0.463525 -27.5 -1.42659
      vertex 16.8819 -27.5 -5
      vertex 0 -27.5 -1.5
    endloop
  endfacet
  facet normal 0 1 0
    outer loop
      vertex 1.5 -27.5 -5.55112e-16
      vertex 16.8819 -27.5 -5
      vertex 1.42658 -27.5 -0.463525
    endloop
  endfacet
  facet normal 0 1 0
    outer loop
      vertex 16.8819 -27.5 -5
      vertex 1.5 -27.5 -5.55112e-16
      vertex 16.8819 -27.5 5
    endloop
  endfacet
  facet normal 0 1 0
    outer loop
      vertex -1.42658 -27.5 0.463525
      vertex -16.8819 -27.5 5
      vertex -1.21352 -27.5 0.881678
    endloop
  endfacet
  facet normal 0 1 0
    outer loop
      vertex 1.5 -27.5 -5.55112e-16
      vertex 1.42658 -27.5 0.463525
      vertex 16.8819 -27.5 5
    endloop
  endfacet
  facet normal 0 1 0
    outer loop
      vertex -1.21352 -27.5 0.881678
      vertex -16.8819 -27.5 5
      vertex -0.881678 -27.5 1.21352
    endloop
  endfacet
  facet normal 0 1 0
    outer loop
      vertex 1.42658 -27.5 0.463525
      vertex 1.21352 -27.5 0.881678
      vertex 16.8819 -27.5 5
    endloop
  endfacet
  facet normal 0 1 0
    outer loop
      vertex -0.881678 -27.5 1.21352
      vertex -16.8819 -27.5 5
      vertex -0.463525 -27.5 1.42658
    endloop
  endfacet
  facet normal 0 1 0
    outer loop
      vertex 1.21352 -27.5 0.881678
      vertex 0.881678 -27.5 1.21352
      vertex 16.8819 -27.5 5
    endloop
  endfacet
  facet normal 0 1 0
    outer loop
      vertex 0 -27.5 1.5
      vertex -16.8819 -27.5 5
      vertex 0.463525 -27.5 1.42658
    endloop
  endfacet
  facet normal 0 1 0
    outer loop
      vertex 0.881678 -27.5 1.21352
      vertex 0.463525 -27.5 1.42658
      vertex 16.8819 -27.5 5
    endloop
  endfacet
  facet normal 0 1 0
    outer loop
      vertex -0.463525 -27.5 1.42658
      vertex -16.8819 -27.5 5
      vertex 0 -27.5 1.5
    endloop
  endfacet
  facet normal 0 1 0
    outer loop
      vertex -1.5 -27.5 -5.55112e-16
      vertex -16.8819 -27.5 5
      vertex -1.42658 -27.5 0.463525
    endloop
  endfacet
  facet normal -1.00806e-16 0.891006 0.453991
    outer loop
      vertex 5 -7.21352 -0.881678
      vertex 1.5 -7.21352 -0.881678
      vertex 5 -7.42658 -0.463525
    endloop
  endfacet
  facet normal -1.00806e-16 0.891006 0.453991
    outer loop
      vertex 5 -7.42658 -0.463525
      vertex 1.5 -7.21352 -0.881678
      vertex 1.5 -7.42658 -0.463525
    endloop
  endfacet
  facet normal -3.47354e-17 0.987688 0.156434
    outer loop
      vertex 5 -7.42658 -0.463525
      vertex 1.5 -7.42658 -0.463525
      vertex 5 -7.5 1.11022e-15
    endloop
  endfacet
  facet normal -3.47354e-17 0.987688 0.156434
    outer loop
      vertex 5 -7.5 1.11022e-15
      vertex 1.5 -7.42658 -0.463525
      vertex 1.5 -7.5 3.33067e-16
    endloop
  endfacet
  facet normal -1.57009e-16 0.707107 0.707107
    outer loop
      vertex 5 -6.88168 -1.21352
      vertex 1.5 -6.88168 -1.21352
      vertex 5 -7.21352 -0.881678
    endloop
  endfacet
  facet normal -1.57009e-16 0.707107 0.707107
    outer loop
      vertex 5 -7.21352 -0.881678
      vertex 1.5 -6.88168 -1.21352
      vertex 1.5 -7.21352 -0.881678
    endloop
  endfacet
  facet normal -1.97843e-16 0.453991 0.891006
    outer loop
      vertex 5 -6.88168 -1.21352
      vertex 5 -6.46352 -1.42658
      vertex 1.5 -6.46352 -1.42658
    endloop
  endfacet
  facet normal -1.97843e-16 0.453991 0.891006
    outer loop
      vertex 1.5 -6.88168 -1.21352
      vertex 5 -6.88168 -1.21352
      vertex 1.5 -6.46352 -1.42658
    endloop
  endfacet
  facet normal -2.19311e-16 0.156434 0.987688
    outer loop
      vertex 5 -6.46352 -1.42658
      vertex 5 -6 -1.5
      vertex 1.5 -6 -1.5
    endloop
  endfacet
  facet normal -2.19311e-16 0.156434 0.987688
    outer loop
      vertex 1.5 -6.46352 -1.42658
      vertex 5 -6.46352 -1.42658
      vertex 1.5 -6 -1.5
    endloop
  endfacet
  facet normal -2.19311e-16 -0.156434 0.987688
    outer loop
      vertex 5 -6 -1.5
      vertex 5 -5.53647 -1.42658
      vertex 1.5 -5.53647 -1.42658
    endloop
  endfacet
  facet normal -2.19311e-16 -0.156434 0.987688
    outer loop
      vertex 1.5 -6 -1.5
      vertex 5 -6 -1.5
      vertex 1.5 -5.53647 -1.42658
    endloop
  endfacet
  facet normal -1.97843e-16 -0.453991 0.891006
    outer loop
      vertex 5 -5.53647 -1.42658
      vertex 5 -5.11832 -1.21352
      vertex 1.5 -5.11832 -1.21352
    endloop
  endfacet
  facet normal -1.97843e-16 -0.453991 0.891006
    outer loop
      vertex 1.5 -5.53647 -1.42658
      vertex 5 -5.53647 -1.42658
      vertex 1.5 -5.11832 -1.21352
    endloop
  endfacet
  facet normal -1.57009e-16 -0.707107 0.707107
    outer loop
      vertex 5 -5.11832 -1.21352
      vertex 5 -4.78647 -0.881678
      vertex 1.5 -4.78647 -0.881678
    endloop
  endfacet
  facet normal -1.57009e-16 -0.707107 0.707107
    outer loop
      vertex 1.5 -5.11832 -1.21352
      vertex 5 -5.11832 -1.21352
      vertex 1.5 -4.78647 -0.881678
    endloop
  endfacet
  facet normal -1.00806e-16 -0.891006 0.453991
    outer loop
      vertex 5 -4.78647 -0.881678
      vertex 5 -4.57341 -0.463525
      vertex 1.5 -4.57341 -0.463525
    endloop
  endfacet
  facet normal -1.00806e-16 -0.891006 0.453991
    outer loop
      vertex 1.5 -4.78647 -0.881678
      vertex 5 -4.78647 -0.881678
      vertex 1.5 -4.57341 -0.463525
    endloop
  endfacet
  facet normal -3.47354e-17 -0.987688 0.156434
    outer loop
      vertex 5 -4.57341 -0.463525
      vertex 5 -4.5 1.11022e-15
      vertex 1.5 -4.5 3.33067e-16
    endloop
  endfacet
  facet normal -3.47354e-17 -0.987688 0.156434
    outer loop
      vertex 1.5 -4.57341 -0.463525
      vertex 5 -4.57341 -0.463525
      vertex 1.5 -4.5 3.33067e-16
    endloop
  endfacet
  facet normal 3.47354e-17 -0.987688 -0.156434
    outer loop
      vertex 1.5 -4.5 3.33067e-16
      vertex 5 -4.5 1.11022e-15
      vertex 5 -4.57341 0.463525
    endloop
  endfacet
  facet normal 3.47354e-17 -0.987688 -0.156434
    outer loop
      vertex 1.5 -4.57341 0.463525
      vertex 1.5 -4.5 3.33067e-16
      vertex 5 -4.57341 0.463525
    endloop
  endfacet
  facet normal 1.00806e-16 -0.891006 -0.453991
    outer loop
      vertex 1.5 -4.57341 0.463525
      vertex 5 -4.57341 0.463525
      vertex 5 -4.78647 0.881678
    endloop
  endfacet
  facet normal 1.00806e-16 -0.891006 -0.453991
    outer loop
      vertex 1.5 -4.78647 0.881678
      vertex 1.5 -4.57341 0.463525
      vertex 5 -4.78647 0.881678
    endloop
  endfacet
  facet normal 1.57009e-16 -0.707107 -0.707107
    outer loop
      vertex 1.5 -4.78647 0.881678
      vertex 5 -4.78647 0.881678
      vertex 5 -5.11832 1.21353
    endloop
  endfacet
  facet normal 1.57009e-16 -0.707107 -0.707107
    outer loop
      vertex 1.5 -5.11832 1.21353
      vertex 1.5 -4.78647 0.881678
      vertex 5 -5.11832 1.21353
    endloop
  endfacet
  facet normal 1.97843e-16 -0.453991 -0.891006
    outer loop
      vertex 5 -5.11832 1.21353
      vertex 5 -5.53647 1.42659
      vertex 1.5 -5.11832 1.21353
    endloop
  endfacet
  facet normal 1.97843e-16 -0.453991 -0.891006
    outer loop
      vertex 1.5 -5.11832 1.21353
      vertex 5 -5.53647 1.42659
      vertex 1.5 -5.53647 1.42659
    endloop
  endfacet
  facet normal 2.19311e-16 -0.156434 -0.987688
    outer loop
      vertex 5 -5.53647 1.42659
      vertex 5 -6 1.5
      vertex 1.5 -5.53647 1.42659
    endloop
  endfacet
  facet normal 2.19311e-16 -0.156434 -0.987688
    outer loop
      vertex 1.5 -5.53647 1.42659
      vertex 5 -6 1.5
      vertex 1.5 -6 1.5
    endloop
  endfacet
  facet normal 2.19311e-16 0.156434 -0.987688
    outer loop
      vertex 5 -6 1.5
      vertex 5 -6.46352 1.42659
      vertex 1.5 -6 1.5
    endloop
  endfacet
  facet normal 2.19311e-16 0.156434 -0.987688
    outer loop
      vertex 1.5 -6 1.5
      vertex 5 -6.46352 1.42659
      vertex 1.5 -6.46352 1.42659
    endloop
  endfacet
  facet normal 1.97843e-16 0.453991 -0.891006
    outer loop
      vertex 5 -6.46352 1.42659
      vertex 5 -6.88168 1.21353
      vertex 1.5 -6.46352 1.42659
    endloop
  endfacet
  facet normal 1.97843e-16 0.453991 -0.891006
    outer loop
      vertex 1.5 -6.46352 1.42659
      vertex 5 -6.88168 1.21353
      vertex 1.5 -6.88168 1.21353
    endloop
  endfacet
  facet normal 1.57009e-16 0.707107 -0.707107
    outer loop
      vertex 5 -6.88168 1.21353
      vertex 5 -7.21352 0.881678
      vertex 1.5 -6.88168 1.21353
    endloop
  endfacet
  facet normal 1.57009e-16 0.707107 -0.707107
    outer loop
      vertex 1.5 -6.88168 1.21353
      vertex 5 -7.21352 0.881678
      vertex 1.5 -7.21352 0.881678
    endloop
  endfacet
  facet normal 1.00806e-16 0.891006 -0.453991
    outer loop
      vertex 5 -7.21352 0.881678
      vertex 5 -7.42658 0.463525
      vertex 1.5 -7.21352 0.881678
    endloop
  endfacet
  facet normal 1.00806e-16 0.891006 -0.453991
    outer loop
      vertex 1.5 -7.21352 0.881678
      vertex 5 -7.42658 0.463525
      vertex 1.5 -7.42658 0.463525
    endloop
  endfacet
  facet normal 3.47354e-17 0.987688 -0.156434
    outer loop
      vertex 5 -7.42658 0.463525
      vertex 5 -7.5 1.11022e-15
      vertex 1.5 -7.42658 0.463525
    endloop
  endfacet
  facet normal 3.47354e-17 0.987688 -0.156434
    outer loop
      vertex 1.5 -7.42658 0.463525
      vertex 5 -7.5 1.11022e-15
      vertex 1.5 -7.5 3.33067e-16
    endloop
  endfacet
  facet normal -3.47354e-17 0.987688 0.156434
    outer loop
      vertex -1.5 -7.42658 -0.463525
      vertex -5 -7.42658 -0.463525
      vertex -1.5 -7.5 -3.33067e-16
    endloop
  endfacet
  facet normal -3.47354e-17 0.987688 0.156434
    outer loop
      vertex -1.5 -7.5 -3.33067e-16
      vertex -5 -7.42658 -0.463525
      vertex -5 -7.5 -1.11022e-15
    endloop
  endfacet
  facet normal 3.47354e-17 0.987688 -0.156434
    outer loop
      vertex -1.5 -7.42658 0.463525
      vertex -1.5 -7.5 -3.33067e-16
      vertex -5 -7.42658 0.463525
    endloop
  endfacet
  facet normal 3.47354e-17 0.987688 -0.156434
    outer loop
      vertex -5 -7.42658 0.463525
      vertex -1.5 -7.5 -3.33067e-16
      vertex -5 -7.5 -1.11022e-15
    endloop
  endfacet
  facet normal 1.00806e-16 0.891006 -0.453991
    outer loop
      vertex -1.5 -7.21352 0.881678
      vertex -1.5 -7.42658 0.463525
      vertex -5 -7.21352 0.881678
    endloop
  endfacet
  facet normal 1.00806e-16 0.891006 -0.453991
    outer loop
      vertex -5 -7.21352 0.881678
      vertex -1.5 -7.42658 0.463525
      vertex -5 -7.42658 0.463525
    endloop
  endfacet
  facet normal 1.57009e-16 0.707107 -0.707107
    outer loop
      vertex -1.5 -6.88168 1.21352
      vertex -1.5 -7.21352 0.881678
      vertex -5 -6.88168 1.21352
    endloop
  endfacet
  facet normal 1.57009e-16 0.707107 -0.707107
    outer loop
      vertex -5 -6.88168 1.21352
      vertex -1.5 -7.21352 0.881678
      vertex -5 -7.21352 0.881678
    endloop
  endfacet
  facet normal 1.97843e-16 0.453991 -0.891006
    outer loop
      vertex -1.5 -6.46352 1.42658
      vertex -1.5 -6.88168 1.21352
      vertex -5 -6.46352 1.42658
    endloop
  endfacet
  facet normal 1.97843e-16 0.453991 -0.891006
    outer loop
      vertex -5 -6.46352 1.42658
      vertex -1.5 -6.88168 1.21352
      vertex -5 -6.88168 1.21352
    endloop
  endfacet
  facet normal 2.19311e-16 0.156434 -0.987688
    outer loop
      vertex -1.5 -6 1.5
      vertex -1.5 -6.46352 1.42658
      vertex -5 -6 1.5
    endloop
  endfacet
  facet normal 2.19311e-16 0.156434 -0.987688
    outer loop
      vertex -5 -6 1.5
      vertex -1.5 -6.46352 1.42658
      vertex -5 -6.46352 1.42658
    endloop
  endfacet
  facet normal 2.19311e-16 -0.156434 -0.987688
    outer loop
      vertex -1.5 -5.53647 1.42658
      vertex -1.5 -6 1.5
      vertex -5 -5.53647 1.42658
    endloop
  endfacet
  facet normal 2.19311e-16 -0.156434 -0.987688
    outer loop
      vertex -5 -5.53647 1.42658
      vertex -1.5 -6 1.5
      vertex -5 -6 1.5
    endloop
  endfacet
  facet normal 1.97843e-16 -0.453991 -0.891006
    outer loop
      vertex -1.5 -5.11832 1.21352
      vertex -1.5 -5.53647 1.42658
      vertex -5 -5.11832 1.21352
    endloop
  endfacet
  facet normal 1.97843e-16 -0.453991 -0.891006
    outer loop
      vertex -5 -5.11832 1.21352
      vertex -1.5 -5.53647 1.42658
      vertex -5 -5.53647 1.42658
    endloop
  endfacet
  facet normal 1.57009e-16 -0.707107 -0.707107
    outer loop
      vertex -5 -4.78647 0.881678
      vertex -1.5 -4.78647 0.881678
      vertex -1.5 -5.11832 1.21352
    endloop
  endfacet
  facet normal 1.57009e-16 -0.707107 -0.707107
    outer loop
      vertex -5 -5.11832 1.21352
      vertex -5 -4.78647 0.881678
      vertex -1.5 -5.11832 1.21352
    endloop
  endfacet
  facet normal 1.00806e-16 -0.891006 -0.453991
    outer loop
      vertex -5 -4.57341 0.463525
      vertex -1.5 -4.57341 0.463525
      vertex -1.5 -4.78647 0.881678
    endloop
  endfacet
  facet normal 1.00806e-16 -0.891006 -0.453991
    outer loop
      vertex -5 -4.78647 0.881678
      vertex -5 -4.57341 0.463525
      vertex -1.5 -4.78647 0.881678
    endloop
  endfacet
  facet normal 3.47354e-17 -0.987688 -0.156434
    outer loop
      vertex -5 -4.5 -1.11022e-15
      vertex -1.5 -4.5 -3.33067e-16
      vertex -1.5 -4.57341 0.463525
    endloop
  endfacet
  facet normal 3.47354e-17 -0.987688 -0.156434
    outer loop
      vertex -5 -4.57341 0.463525
      vertex -5 -4.5 -1.11022e-15
      vertex -1.5 -4.57341 0.463525
    endloop
  endfacet
  facet normal -3.47354e-17 -0.987688 0.156434
    outer loop
      vertex -1.5 -4.57341 -0.463525
      vertex -1.5 -4.5 -3.33067e-16
      vertex -5 -4.5 -1.11022e-15
    endloop
  endfacet
  facet normal -3.47354e-17 -0.987688 0.156434
    outer loop
      vertex -5 -4.57341 -0.463525
      vertex -1.5 -4.57341 -0.463525
      vertex -5 -4.5 -1.11022e-15
    endloop
  endfacet
  facet normal -1.00806e-16 -0.891006 0.453991
    outer loop
      vertex -1.5 -4.78647 -0.881678
      vertex -1.5 -4.57341 -0.463525
      vertex -5 -4.57341 -0.463525
    endloop
  endfacet
  facet normal -1.00806e-16 -0.891006 0.453991
    outer loop
      vertex -5 -4.78647 -0.881678
      vertex -1.5 -4.78647 -0.881678
      vertex -5 -4.57341 -0.463525
    endloop
  endfacet
  facet normal -1.57009e-16 -0.707107 0.707107
    outer loop
      vertex -1.5 -5.11832 -1.21353
      vertex -1.5 -4.78647 -0.881678
      vertex -5 -4.78647 -0.881678
    endloop
  endfacet
  facet normal -1.57009e-16 -0.707107 0.707107
    outer loop
      vertex -5 -5.11832 -1.21353
      vertex -1.5 -5.11832 -1.21353
      vertex -5 -4.78647 -0.881678
    endloop
  endfacet
  facet normal -1.97843e-16 -0.453991 0.891006
    outer loop
      vertex -1.5 -5.53647 -1.42659
      vertex -1.5 -5.11832 -1.21353
      vertex -5 -5.11832 -1.21353
    endloop
  endfacet
  facet normal -1.97843e-16 -0.453991 0.891006
    outer loop
      vertex -5 -5.53647 -1.42659
      vertex -1.5 -5.53647 -1.42659
      vertex -5 -5.11832 -1.21353
    endloop
  endfacet
  facet normal -2.19311e-16 -0.156434 0.987688
    outer loop
      vertex -1.5 -6 -1.5
      vertex -1.5 -5.53647 -1.42659
      vertex -5 -5.53647 -1.42659
    endloop
  endfacet
  facet normal -2.19311e-16 -0.156434 0.987688
    outer loop
      vertex -5 -6 -1.5
      vertex -1.5 -6 -1.5
      vertex -5 -5.53647 -1.42659
    endloop
  endfacet
  facet normal -2.19311e-16 0.156434 0.987688
    outer loop
      vertex -1.5 -6.46352 -1.42659
      vertex -1.5 -6 -1.5
      vertex -5 -6 -1.5
    endloop
  endfacet
  facet normal -2.19311e-16 0.156434 0.987688
    outer loop
      vertex -5 -6.46352 -1.42659
      vertex -1.5 -6.46352 -1.42659
      vertex -5 -6 -1.5
    endloop
  endfacet
  facet normal -1.97843e-16 0.453991 0.891006
    outer loop
      vertex -1.5 -6.88168 -1.21353
      vertex -1.5 -6.46352 -1.42659
      vertex -5 -6.46352 -1.42659
    endloop
  endfacet
  facet normal -1.97843e-16 0.453991 0.891006
    outer loop
      vertex -5 -6.88168 -1.21353
      vertex -1.5 -6.88168 -1.21353
      vertex -5 -6.46352 -1.42659
    endloop
  endfacet
  facet normal -1.57009e-16 0.707107 0.707107
    outer loop
      vertex -1.5 -6.88168 -1.21353
      vertex -5 -6.88168 -1.21353
      vertex -1.5 -7.21352 -0.881678
    endloop
  endfacet
  facet normal -1.57009e-16 0.707107 0.707107
    outer loop
      vertex -1.5 -7.21352 -0.881678
      vertex -5 -6.88168 -1.21353
      vertex -5 -7.21352 -0.881678
    endloop
  endfacet
  facet normal -1.00806e-16 0.891006 0.453991
    outer loop
      vertex -1.5 -7.21352 -0.881678
      vertex -5 -7.21352 -0.881678
      vertex -1.5 -7.42658 -0.463525
    endloop
  endfacet
  facet normal -1.00806e-16 0.891006 0.453991
    outer loop
      vertex -1.5 -7.42658 -0.463525
      vertex -5 -7.21352 -0.881678
      vertex -5 -7.42658 -0.463525
    endloop
  endfacet
endsolid OpenSCAD_Model
